  0
SECTION
  2
HEADER
  9
$ACADVER
  1
AC1009
  9
$FILLMODE
 70
0
  9
$EXTMIN
 10
-0.1250
 20
-0.1250
 30
0.0000
  9
$EXTMAX
 10
40.1250
 20
44.5903
 30
0.0000
  0
ENDSEC
  0
SECTION
  2
TABLES
  0
TABLE
  2
LTYPE
 70
1
  0
LTYPE
  2
CONTINUOUS
 70
64
  3
Solid line
 72
65
 73
0
 40
0
  0
ENDTAB
  0
TABLE
  2
LAYER
 70
255
  0
LAYER
  2
17
 70
64
 62
110
  6
CONTINUOUS
  0
LAYER
  2
18
 70
64
 62
110
  6
CONTINUOUS
  0
LAYER
  2
20
 70
64
 62
31
  6
CONTINUOUS
  0
ENDTAB
  0
ENDSEC
  0
SECTION
  2
BLOCKS
  0
BLOCK
  8
0
  2
RECT
 70
64
 10
0.0000
 20
0.0000
 30
0.0000
  3
RECT
  0
SOLID
  8
0
 10
-0.5000
 20
-0.5000
 30
0.0000
 11
0.5000
 21
-0.5000
 31
0.0000
 12
-0.5000
 22
0.5000
 32
0.0000
 13
0.5000
 23
0.5000
 33
0.0000
  0
ENDBLK
  8
0
  0
BLOCK
  8
0
  2
PIE
 70
64
 10
0.0000
 20
0.0000
 30
0.0000
  3
PIE
  0
CIRCLE
  8
0
 10
0.0000
 20
0.0000
 30
0.0000
 40
0.5000
  0
ENDBLK
  8
0
  0
BLOCK
  8
0
  2
OCTAGONP
 70
64
 10
0.0000
 20
0.0000
 30
0.0000
  3
OCTAGONP
  0
POLYLINE
  8
0
 66
1
 10
0.0000
 20
0.0000
 30
0.0000
 40
0.0000
 41
0.0000
 70
1
  0
VERTEX
  8
0
 10
-0.5000
 20
-0.2071
 30
0.0000
  0
VERTEX
  8
0
 10
-0.5000
 20
0.2071
 30
0.0000
  0
VERTEX
  8
0
 10
-0.2071
 20
0.5000
 30
0.0000
  0
VERTEX
  8
0
 10
0.2071
 20
0.5000
 30
0.0000
  0
VERTEX
  8
0
 10
0.5000
 20
0.2071
 30
0.0000
  0
VERTEX
  8
0
 10
0.5000
 20
-0.2071
 30
0.0000
  0
VERTEX
  8
0
 10
0.2071
 20
-0.5000
 30
0.0000
  0
VERTEX
  8
0
 10
-0.2071
 20
-0.5000
 30
0.0000
  0
SEQEND
  8
0
  0
ENDBLK
  8
0
  0
BLOCK
  8
0
  2
SQUAREP
 70
64
 10
0.0000
 20
0.0000
 30
0.0000
  3
SQUAREP
  0
SOLID
  8
0
 10
-0.5000
 20
-0.5000
 30
0.0000
 11
0.5000
 21
-0.5000
 31
0.0000
 12
-0.5000
 22
0.5000
 32
0.0000
 13
0.5000
 23
0.5000
 33
0.0000
  0
ENDBLK
  8
0
  0
BLOCK
  8
0
  2
ROUNDP
 70
64
 10
0.0000
 20
0.0000
 30
0.0000
  3
ROUNDP
  0
CIRCLE
  8
0
 10
0.0000
 20
0.0000
 30
0.0000
 40
0.5000
  0
ENDBLK
  8
0
  0
BLOCK
  8
0
  2
ANNULUSP
 70
64
 10
0.0000
 20
0.0000
 30
0.0000
  3
ANNULUSP
  0
CIRCLE
  8
0
 10
0.0000
 20
0.0000
 30
0.0000
 40
0.5000
  0
ENDBLK
  8
0
  0
BLOCK
  8
0
  2
THERMALP
 70
64
 10
0.0000
 20
0.0000
 30
0.0000
  3
THERMALP
  0
POLYLINE
  8
0
 66
1
 10
0.0000
 20
0.0000
 30
0.0000
 40
0.0000
 41
0.0000
 70
1
  0
VERTEX
  8
0
 10
-0.2379
 20
0.4000
 30
0.0000
  0
VERTEX
  8
0
 10
0.2379
 20
0.4000
 30
0.0000
 42
1.0000
  0
VERTEX
  8
0
 10
0.2379
 20
0.5000
 30
0.0000
  0
VERTEX
  8
0
 10
-0.2379
 20
0.5000
 30
0.0000
 42
1.0000
  0
SEQEND
  8
0
  0
POLYLINE
  8
0
 66
1
 10
0.0000
 20
0.0000
 30
0.0000
 40
0.0000
 41
0.0000
 70
1
  0
VERTEX
  8
0
 10
0.4000
 20
0.2379
 30
0.0000
  0
VERTEX
  8
0
 10
0.4000
 20
-0.2379
 30
0.0000
 42
1.0000
  0
VERTEX
  8
0
 10
0.5000
 20
-0.2379
 30
0.0000
  0
VERTEX
  8
0
 10
0.5000
 20
0.2379
 30
0.0000
 42
1.0000
  0
SEQEND
  8
0
  0
POLYLINE
  8
0
 66
1
 10
0.0000
 20
0.0000
 30
0.0000
 40
0.0000
 41
0.0000
 70
1
  0
VERTEX
  8
0
 10
0.2379
 20
-0.4000
 30
0.0000
  0
VERTEX
  8
0
 10
-0.2379
 20
-0.4000
 30
0.0000
 42
1.0000
  0
VERTEX
  8
0
 10
-0.2379
 20
-0.5000
 30
0.0000
  0
VERTEX
  8
0
 10
0.2379
 20
-0.5000
 30
0.0000
 42
1.0000
  0
SEQEND
  8
0
  0
POLYLINE
  8
0
 66
1
 10
0.0000
 20
0.0000
 30
0.0000
 40
0.0000
 41
0.0000
 70
1
  0
VERTEX
  8
0
 10
-0.4000
 20
-0.2379
 30
0.0000
  0
VERTEX
  8
0
 10
-0.4000
 20
0.2379
 30
0.0000
 42
1.0000
  0
VERTEX
  8
0
 10
-0.5000
 20
0.2379
 30
0.0000
  0
VERTEX
  8
0
 10
-0.5000
 20
-0.2379
 30
0.0000
 42
1.0000
  0
SEQEND
  8
0
  0
ENDBLK
  8
0
  0
BLOCK
  8
0
  2
OCTAGONV
 70
64
 10
0.0000
 20
0.0000
 30
0.0000
  3
OCTAGONV
  0
POLYLINE
  8
0
 66
1
 10
0.0000
 20
0.0000
 30
0.0000
 40
0.0000
 41
0.0000
 70
1
  0
VERTEX
  8
0
 10
-0.5000
 20
-0.2071
 30
0.0000
  0
VERTEX
  8
0
 10
-0.5000
 20
0.2071
 30
0.0000
  0
VERTEX
  8
0
 10
-0.2071
 20
0.5000
 30
0.0000
  0
VERTEX
  8
0
 10
0.2071
 20
0.5000
 30
0.0000
  0
VERTEX
  8
0
 10
0.5000
 20
0.2071
 30
0.0000
  0
VERTEX
  8
0
 10
0.5000
 20
-0.2071
 30
0.0000
  0
VERTEX
  8
0
 10
0.2071
 20
-0.5000
 30
0.0000
  0
VERTEX
  8
0
 10
-0.2071
 20
-0.5000
 30
0.0000
  0
SEQEND
  8
0
  0
ENDBLK
  8
0
  0
BLOCK
  8
0
  2
SQUAREV
 70
64
 10
0.0000
 20
0.0000
 30
0.0000
  3
SQUAREV
  0
SOLID
  8
0
 10
-0.5000
 20
-0.5000
 30
0.0000
 11
0.5000
 21
-0.5000
 31
0.0000
 12
-0.5000
 22
0.5000
 32
0.0000
 13
0.5000
 23
0.5000
 33
0.0000
  0
ENDBLK
  8
0
  0
BLOCK
  8
0
  2
ROUNDV
 70
64
 10
0.0000
 20
0.0000
 30
0.0000
  3
ROUNDV
  0
CIRCLE
  8
0
 10
0.0000
 20
0.0000
 30
0.0000
 40
0.5000
  0
ENDBLK
  8
0
  0
BLOCK
  8
0
  2
ANNULUSV
 70
64
 10
0.0000
 20
0.0000
 30
0.0000
  3
ANNULUSV
  0
CIRCLE
  8
0
 10
0.0000
 20
0.0000
 30
0.0000
 40
0.5000
  0
ENDBLK
  8
0
  0
BLOCK
  8
0
  2
THERMALV
 70
64
 10
0.0000
 20
0.0000
 30
0.0000
  3
THERMALV
  0
POLYLINE
  8
0
 66
1
 10
0.0000
 20
0.0000
 30
0.0000
 40
0.0000
 41
0.0000
 70
1
  0
VERTEX
  8
0
 10
-0.2379
 20
0.4000
 30
0.0000
  0
VERTEX
  8
0
 10
0.2379
 20
0.4000
 30
0.0000
 42
1.0000
  0
VERTEX
  8
0
 10
0.2379
 20
0.5000
 30
0.0000
  0
VERTEX
  8
0
 10
-0.2379
 20
0.5000
 30
0.0000
 42
1.0000
  0
SEQEND
  8
0
  0
POLYLINE
  8
0
 66
1
 10
0.0000
 20
0.0000
 30
0.0000
 40
0.0000
 41
0.0000
 70
1
  0
VERTEX
  8
0
 10
0.4000
 20
0.2379
 30
0.0000
  0
VERTEX
  8
0
 10
0.4000
 20
-0.2379
 30
0.0000
 42
1.0000
  0
VERTEX
  8
0
 10
0.5000
 20
-0.2379
 30
0.0000
  0
VERTEX
  8
0
 10
0.5000
 20
0.2379
 30
0.0000
 42
1.0000
  0
SEQEND
  8
0
  0
POLYLINE
  8
0
 66
1
 10
0.0000
 20
0.0000
 30
0.0000
 40
0.0000
 41
0.0000
 70
1
  0
VERTEX
  8
0
 10
0.2379
 20
-0.4000
 30
0.0000
  0
VERTEX
  8
0
 10
-0.2379
 20
-0.4000
 30
0.0000
 42
1.0000
  0
VERTEX
  8
0
 10
-0.2379
 20
-0.5000
 30
0.0000
  0
VERTEX
  8
0
 10
0.2379
 20
-0.5000
 30
0.0000
 42
1.0000
  0
SEQEND
  8
0
  0
POLYLINE
  8
0
 66
1
 10
0.0000
 20
0.0000
 30
0.0000
 40
0.0000
 41
0.0000
 70
1
  0
VERTEX
  8
0
 10
-0.4000
 20
-0.2379
 30
0.0000
  0
VERTEX
  8
0
 10
-0.4000
 20
0.2379
 30
0.0000
 42
1.0000
  0
VERTEX
  8
0
 10
-0.5000
 20
0.2379
 30
0.0000
  0
VERTEX
  8
0
 10
-0.5000
 20
-0.2379
 30
0.0000
 42
1.0000
  0
SEQEND
  8
0
  0
ENDBLK
  8
0
  0
BLOCK
  8
0
  2
LONGP100
 70
64
 10
0.0000
 20
0.0000
 30
0.0000
  3
LONGP100
  0
POLYLINE
  8
0
 66
1
 10
0.0000
 20
0.0000
 30
0.0000
 40
0.0000
 41
0.0000
 70
1
  0
VERTEX
  8
0
 10
-0.5000
 20
-0.5000
 30
0.0000
  0
VERTEX
  8
0
 10
0.5000
 20
-0.5000
 30
0.0000
 42
1.0000
  0
VERTEX
  8
0
 10
0.5000
 20
0.5000
 30
0.0000
  0
VERTEX
  8
0
 10
-0.5000
 20
0.5000
 30
0.0000
 42
1.0000
  0
SEQEND
  8
0
  0
ENDBLK
  8
0
  0
ENDSEC
  0
SECTION
  2
ENTITIES
  0
POLYLINE
  8
20
 66
1
 10
0.0000
 20
0.0000
 30
0.0000
 40
0.0000
 41
0.0000
 70
1
  0
VERTEX
  8
20
 10
1.6238
 20
27.3000
 30
0.0000
  0
VERTEX
  8
20
 10
1.6238
 20
12.7000
 30
0.0000
 42
1.0000
  0
VERTEX
  8
20
 10
1.7762
 20
12.7000
 30
0.0000
  0
VERTEX
  8
20
 10
1.7762
 20
27.3000
 30
0.0000
 42
1.0000
  0
SEQEND
  8
0
  0
POLYLINE
  8
20
 66
1
 10
0.0000
 20
0.0000
 30
0.0000
 40
0.0000
 41
0.0000
 70
1
  0
VERTEX
  8
20
 10
1.6461
 20
12.6461
 30
0.0000
  0
VERTEX
  8
20
 10
3.8461
 20
10.4461
 30
0.0000
 42
1.0000
  0
VERTEX
  8
20
 10
3.9539
 20
10.5539
 30
0.0000
  0
VERTEX
  8
20
 10
1.7539
 20
12.7539
 30
0.0000
 42
1.0000
  0
SEQEND
  8
0
  0
POLYLINE
  8
20
 66
1
 10
0.0000
 20
0.0000
 30
0.0000
 40
0.0000
 41
0.0000
 70
1
  0
VERTEX
  8
20
 10
3.9762
 20
10.5000
 30
0.0000
  0
VERTEX
  8
20
 10
3.9762
 20
29.5000
 30
0.0000
 42
1.0000
  0
VERTEX
  8
20
 10
3.8238
 20
29.5000
 30
0.0000
  0
VERTEX
  8
20
 10
3.8238
 20
10.5000
 30
0.0000
 42
1.0000
  0
SEQEND
  8
0
  0
POLYLINE
  8
20
 66
1
 10
0.0000
 20
0.0000
 30
0.0000
 40
0.0000
 41
0.0000
 70
1
  0
VERTEX
  8
20
 10
3.8461
 20
29.5539
 30
0.0000
  0
VERTEX
  8
20
 10
1.6461
 20
27.3539
 30
0.0000
 42
1.0000
  0
VERTEX
  8
20
 10
1.7539
 20
27.2461
 30
0.0000
  0
VERTEX
  8
20
 10
3.9539
 20
29.4461
 30
0.0000
 42
1.0000
  0
SEQEND
  8
0
  0
POLYLINE
  8
20
 66
1
 10
0.0000
 20
0.0000
 30
0.0000
 40
0.0000
 41
0.0000
 70
1
  0
VERTEX
  8
20
 10
3.8844
 20
10.4394
 30
0.0000
  0
VERTEX
  8
20
 10
3.9000
 20
10.4394
 30
0.0000
 42
1.0000
  0
VERTEX
  8
20
 10
3.9000
 20
10.5918
 30
0.0000
  0
VERTEX
  8
20
 10
3.8844
 20
10.5918
 30
0.0000
 42
1.0000
  0
SEQEND
  8
0
  0
POLYLINE
  8
20
 66
1
 10
0.0000
 20
0.0000
 30
0.0000
 40
0.0000
 41
0.0000
 70
1
  0
VERTEX
  8
20
 10
3.7320
 20
10.5918
 30
0.0000
  0
VERTEX
  8
20
 10
3.9000
 20
10.5918
 30
0.0000
 42
1.0000
  0
VERTEX
  8
20
 10
3.9000
 20
10.7442
 30
0.0000
  0
VERTEX
  8
20
 10
3.7320
 20
10.7442
 30
0.0000
 42
1.0000
  0
SEQEND
  8
0
  0
POLYLINE
  8
20
 66
1
 10
0.0000
 20
0.0000
 30
0.0000
 40
0.0000
 41
0.0000
 70
1
  0
VERTEX
  8
20
 10
3.5796
 20
10.7442
 30
0.0000
  0
VERTEX
  8
20
 10
3.9000
 20
10.7442
 30
0.0000
 42
1.0000
  0
VERTEX
  8
20
 10
3.9000
 20
10.8966
 30
0.0000
  0
VERTEX
  8
20
 10
3.5796
 20
10.8966
 30
0.0000
 42
1.0000
  0
SEQEND
  8
0
  0
POLYLINE
  8
20
 66
1
 10
0.0000
 20
0.0000
 30
0.0000
 40
0.0000
 41
0.0000
 70
1
  0
VERTEX
  8
20
 10
3.4272
 20
10.8966
 30
0.0000
  0
VERTEX
  8
20
 10
3.9000
 20
10.8966
 30
0.0000
 42
1.0000
  0
VERTEX
  8
20
 10
3.9000
 20
11.0490
 30
0.0000
  0
VERTEX
  8
20
 10
3.4272
 20
11.0490
 30
0.0000
 42
1.0000
  0
SEQEND
  8
0
  0
POLYLINE
  8
20
 66
1
 10
0.0000
 20
0.0000
 30
0.0000
 40
0.0000
 41
0.0000
 70
1
  0
VERTEX
  8
20
 10
3.2748
 20
11.0490
 30
0.0000
  0
VERTEX
  8
20
 10
3.9000
 20
11.0490
 30
0.0000
 42
1.0000
  0
VERTEX
  8
20
 10
3.9000
 20
11.2014
 30
0.0000
  0
VERTEX
  8
20
 10
3.2748
 20
11.2014
 30
0.0000
 42
1.0000
  0
SEQEND
  8
0
  0
POLYLINE
  8
20
 66
1
 10
0.0000
 20
0.0000
 30
0.0000
 40
0.0000
 41
0.0000
 70
1
  0
VERTEX
  8
20
 10
3.1224
 20
11.2014
 30
0.0000
  0
VERTEX
  8
20
 10
3.9000
 20
11.2014
 30
0.0000
 42
1.0000
  0
VERTEX
  8
20
 10
3.9000
 20
11.3538
 30
0.0000
  0
VERTEX
  8
20
 10
3.1224
 20
11.3538
 30
0.0000
 42
1.0000
  0
SEQEND
  8
0
  0
POLYLINE
  8
20
 66
1
 10
0.0000
 20
0.0000
 30
0.0000
 40
0.0000
 41
0.0000
 70
1
  0
VERTEX
  8
20
 10
2.9700
 20
11.3538
 30
0.0000
  0
VERTEX
  8
20
 10
3.9000
 20
11.3538
 30
0.0000
 42
1.0000
  0
VERTEX
  8
20
 10
3.9000
 20
11.5062
 30
0.0000
  0
VERTEX
  8
20
 10
2.9700
 20
11.5062
 30
0.0000
 42
1.0000
  0
SEQEND
  8
0
  0
POLYLINE
  8
20
 66
1
 10
0.0000
 20
0.0000
 30
0.0000
 40
0.0000
 41
0.0000
 70
1
  0
VERTEX
  8
20
 10
2.8176
 20
11.5062
 30
0.0000
  0
VERTEX
  8
20
 10
3.9000
 20
11.5062
 30
0.0000
 42
1.0000
  0
VERTEX
  8
20
 10
3.9000
 20
11.6586
 30
0.0000
  0
VERTEX
  8
20
 10
2.8176
 20
11.6586
 30
0.0000
 42
1.0000
  0
SEQEND
  8
0
  0
POLYLINE
  8
20
 66
1
 10
0.0000
 20
0.0000
 30
0.0000
 40
0.0000
 41
0.0000
 70
1
  0
VERTEX
  8
20
 10
2.6652
 20
11.6586
 30
0.0000
  0
VERTEX
  8
20
 10
3.9000
 20
11.6586
 30
0.0000
 42
1.0000
  0
VERTEX
  8
20
 10
3.9000
 20
11.8110
 30
0.0000
  0
VERTEX
  8
20
 10
2.6652
 20
11.8110
 30
0.0000
 42
1.0000
  0
SEQEND
  8
0
  0
POLYLINE
  8
20
 66
1
 10
0.0000
 20
0.0000
 30
0.0000
 40
0.0000
 41
0.0000
 70
1
  0
VERTEX
  8
20
 10
2.5128
 20
11.8110
 30
0.0000
  0
VERTEX
  8
20
 10
3.9000
 20
11.8110
 30
0.0000
 42
1.0000
  0
VERTEX
  8
20
 10
3.9000
 20
11.9634
 30
0.0000
  0
VERTEX
  8
20
 10
2.5128
 20
11.9634
 30
0.0000
 42
1.0000
  0
SEQEND
  8
0
  0
POLYLINE
  8
20
 66
1
 10
0.0000
 20
0.0000
 30
0.0000
 40
0.0000
 41
0.0000
 70
1
  0
VERTEX
  8
20
 10
2.3604
 20
11.9634
 30
0.0000
  0
VERTEX
  8
20
 10
3.9000
 20
11.9634
 30
0.0000
 42
1.0000
  0
VERTEX
  8
20
 10
3.9000
 20
12.1158
 30
0.0000
  0
VERTEX
  8
20
 10
2.3604
 20
12.1158
 30
0.0000
 42
1.0000
  0
SEQEND
  8
0
  0
POLYLINE
  8
20
 66
1
 10
0.0000
 20
0.0000
 30
0.0000
 40
0.0000
 41
0.0000
 70
1
  0
VERTEX
  8
20
 10
2.2080
 20
12.1158
 30
0.0000
  0
VERTEX
  8
20
 10
3.9000
 20
12.1158
 30
0.0000
 42
1.0000
  0
VERTEX
  8
20
 10
3.9000
 20
12.2682
 30
0.0000
  0
VERTEX
  8
20
 10
2.2080
 20
12.2682
 30
0.0000
 42
1.0000
  0
SEQEND
  8
0
  0
POLYLINE
  8
20
 66
1
 10
0.0000
 20
0.0000
 30
0.0000
 40
0.0000
 41
0.0000
 70
1
  0
VERTEX
  8
20
 10
2.0556
 20
12.2682
 30
0.0000
  0
VERTEX
  8
20
 10
3.9000
 20
12.2682
 30
0.0000
 42
1.0000
  0
VERTEX
  8
20
 10
3.9000
 20
12.4206
 30
0.0000
  0
VERTEX
  8
20
 10
2.0556
 20
12.4206
 30
0.0000
 42
1.0000
  0
SEQEND
  8
0
  0
POLYLINE
  8
20
 66
1
 10
0.0000
 20
0.0000
 30
0.0000
 40
0.0000
 41
0.0000
 70
1
  0
VERTEX
  8
20
 10
1.9032
 20
12.4206
 30
0.0000
  0
VERTEX
  8
20
 10
3.9000
 20
12.4206
 30
0.0000
 42
1.0000
  0
VERTEX
  8
20
 10
3.9000
 20
12.5730
 30
0.0000
  0
VERTEX
  8
20
 10
1.9032
 20
12.5730
 30
0.0000
 42
1.0000
  0
SEQEND
  8
0
  0
POLYLINE
  8
20
 66
1
 10
0.0000
 20
0.0000
 30
0.0000
 40
0.0000
 41
0.0000
 70
1
  0
VERTEX
  8
20
 10
1.7508
 20
12.5730
 30
0.0000
  0
VERTEX
  8
20
 10
3.9000
 20
12.5730
 30
0.0000
 42
1.0000
  0
VERTEX
  8
20
 10
3.9000
 20
12.7254
 30
0.0000
  0
VERTEX
  8
20
 10
1.7508
 20
12.7254
 30
0.0000
 42
1.0000
  0
SEQEND
  8
0
  0
POLYLINE
  8
20
 66
1
 10
0.0000
 20
0.0000
 30
0.0000
 40
0.0000
 41
0.0000
 70
1
  0
VERTEX
  8
20
 10
1.7000
 20
12.7254
 30
0.0000
  0
VERTEX
  8
20
 10
3.9000
 20
12.7254
 30
0.0000
 42
1.0000
  0
VERTEX
  8
20
 10
3.9000
 20
12.8778
 30
0.0000
  0
VERTEX
  8
20
 10
1.7000
 20
12.8778
 30
0.0000
 42
1.0000
  0
SEQEND
  8
0
  0
POLYLINE
  8
20
 66
1
 10
0.0000
 20
0.0000
 30
0.0000
 40
0.0000
 41
0.0000
 70
1
  0
VERTEX
  8
20
 10
1.7000
 20
12.8778
 30
0.0000
  0
VERTEX
  8
20
 10
3.9000
 20
12.8778
 30
0.0000
 42
1.0000
  0
VERTEX
  8
20
 10
3.9000
 20
13.0302
 30
0.0000
  0
VERTEX
  8
20
 10
1.7000
 20
13.0302
 30
0.0000
 42
1.0000
  0
SEQEND
  8
0
  0
POLYLINE
  8
20
 66
1
 10
0.0000
 20
0.0000
 30
0.0000
 40
0.0000
 41
0.0000
 70
1
  0
VERTEX
  8
20
 10
1.7000
 20
13.0302
 30
0.0000
  0
VERTEX
  8
20
 10
3.9000
 20
13.0302
 30
0.0000
 42
1.0000
  0
VERTEX
  8
20
 10
3.9000
 20
13.1826
 30
0.0000
  0
VERTEX
  8
20
 10
1.7000
 20
13.1826
 30
0.0000
 42
1.0000
  0
SEQEND
  8
0
  0
POLYLINE
  8
20
 66
1
 10
0.0000
 20
0.0000
 30
0.0000
 40
0.0000
 41
0.0000
 70
1
  0
VERTEX
  8
20
 10
1.7000
 20
13.1826
 30
0.0000
  0
VERTEX
  8
20
 10
3.9000
 20
13.1826
 30
0.0000
 42
1.0000
  0
VERTEX
  8
20
 10
3.9000
 20
13.3350
 30
0.0000
  0
VERTEX
  8
20
 10
1.7000
 20
13.3350
 30
0.0000
 42
1.0000
  0
SEQEND
  8
0
  0
POLYLINE
  8
20
 66
1
 10
0.0000
 20
0.0000
 30
0.0000
 40
0.0000
 41
0.0000
 70
1
  0
VERTEX
  8
20
 10
1.7000
 20
13.3350
 30
0.0000
  0
VERTEX
  8
20
 10
3.9000
 20
13.3350
 30
0.0000
 42
1.0000
  0
VERTEX
  8
20
 10
3.9000
 20
13.4874
 30
0.0000
  0
VERTEX
  8
20
 10
1.7000
 20
13.4874
 30
0.0000
 42
1.0000
  0
SEQEND
  8
0
  0
POLYLINE
  8
20
 66
1
 10
0.0000
 20
0.0000
 30
0.0000
 40
0.0000
 41
0.0000
 70
1
  0
VERTEX
  8
20
 10
1.7000
 20
13.4874
 30
0.0000
  0
VERTEX
  8
20
 10
3.9000
 20
13.4874
 30
0.0000
 42
1.0000
  0
VERTEX
  8
20
 10
3.9000
 20
13.6398
 30
0.0000
  0
VERTEX
  8
20
 10
1.7000
 20
13.6398
 30
0.0000
 42
1.0000
  0
SEQEND
  8
0
  0
POLYLINE
  8
20
 66
1
 10
0.0000
 20
0.0000
 30
0.0000
 40
0.0000
 41
0.0000
 70
1
  0
VERTEX
  8
20
 10
1.7000
 20
13.6398
 30
0.0000
  0
VERTEX
  8
20
 10
3.9000
 20
13.6398
 30
0.0000
 42
1.0000
  0
VERTEX
  8
20
 10
3.9000
 20
13.7922
 30
0.0000
  0
VERTEX
  8
20
 10
1.7000
 20
13.7922
 30
0.0000
 42
1.0000
  0
SEQEND
  8
0
  0
POLYLINE
  8
20
 66
1
 10
0.0000
 20
0.0000
 30
0.0000
 40
0.0000
 41
0.0000
 70
1
  0
VERTEX
  8
20
 10
1.7000
 20
13.7922
 30
0.0000
  0
VERTEX
  8
20
 10
3.9000
 20
13.7922
 30
0.0000
 42
1.0000
  0
VERTEX
  8
20
 10
3.9000
 20
13.9446
 30
0.0000
  0
VERTEX
  8
20
 10
1.7000
 20
13.9446
 30
0.0000
 42
1.0000
  0
SEQEND
  8
0
  0
POLYLINE
  8
20
 66
1
 10
0.0000
 20
0.0000
 30
0.0000
 40
0.0000
 41
0.0000
 70
1
  0
VERTEX
  8
20
 10
1.7000
 20
13.9446
 30
0.0000
  0
VERTEX
  8
20
 10
3.9000
 20
13.9446
 30
0.0000
 42
1.0000
  0
VERTEX
  8
20
 10
3.9000
 20
14.0970
 30
0.0000
  0
VERTEX
  8
20
 10
1.7000
 20
14.0970
 30
0.0000
 42
1.0000
  0
SEQEND
  8
0
  0
POLYLINE
  8
20
 66
1
 10
0.0000
 20
0.0000
 30
0.0000
 40
0.0000
 41
0.0000
 70
1
  0
VERTEX
  8
20
 10
1.7000
 20
14.0970
 30
0.0000
  0
VERTEX
  8
20
 10
3.9000
 20
14.0970
 30
0.0000
 42
1.0000
  0
VERTEX
  8
20
 10
3.9000
 20
14.2494
 30
0.0000
  0
VERTEX
  8
20
 10
1.7000
 20
14.2494
 30
0.0000
 42
1.0000
  0
SEQEND
  8
0
  0
POLYLINE
  8
20
 66
1
 10
0.0000
 20
0.0000
 30
0.0000
 40
0.0000
 41
0.0000
 70
1
  0
VERTEX
  8
20
 10
1.7000
 20
14.2494
 30
0.0000
  0
VERTEX
  8
20
 10
3.9000
 20
14.2494
 30
0.0000
 42
1.0000
  0
VERTEX
  8
20
 10
3.9000
 20
14.4018
 30
0.0000
  0
VERTEX
  8
20
 10
1.7000
 20
14.4018
 30
0.0000
 42
1.0000
  0
SEQEND
  8
0
  0
POLYLINE
  8
20
 66
1
 10
0.0000
 20
0.0000
 30
0.0000
 40
0.0000
 41
0.0000
 70
1
  0
VERTEX
  8
20
 10
1.7000
 20
14.4018
 30
0.0000
  0
VERTEX
  8
20
 10
3.9000
 20
14.4018
 30
0.0000
 42
1.0000
  0
VERTEX
  8
20
 10
3.9000
 20
14.5542
 30
0.0000
  0
VERTEX
  8
20
 10
1.7000
 20
14.5542
 30
0.0000
 42
1.0000
  0
SEQEND
  8
0
  0
POLYLINE
  8
20
 66
1
 10
0.0000
 20
0.0000
 30
0.0000
 40
0.0000
 41
0.0000
 70
1
  0
VERTEX
  8
20
 10
1.7000
 20
14.5542
 30
0.0000
  0
VERTEX
  8
20
 10
3.9000
 20
14.5542
 30
0.0000
 42
1.0000
  0
VERTEX
  8
20
 10
3.9000
 20
14.7066
 30
0.0000
  0
VERTEX
  8
20
 10
1.7000
 20
14.7066
 30
0.0000
 42
1.0000
  0
SEQEND
  8
0
  0
POLYLINE
  8
20
 66
1
 10
0.0000
 20
0.0000
 30
0.0000
 40
0.0000
 41
0.0000
 70
1
  0
VERTEX
  8
20
 10
1.7000
 20
14.7066
 30
0.0000
  0
VERTEX
  8
20
 10
3.9000
 20
14.7066
 30
0.0000
 42
1.0000
  0
VERTEX
  8
20
 10
3.9000
 20
14.8590
 30
0.0000
  0
VERTEX
  8
20
 10
1.7000
 20
14.8590
 30
0.0000
 42
1.0000
  0
SEQEND
  8
0
  0
POLYLINE
  8
20
 66
1
 10
0.0000
 20
0.0000
 30
0.0000
 40
0.0000
 41
0.0000
 70
1
  0
VERTEX
  8
20
 10
1.7000
 20
14.8590
 30
0.0000
  0
VERTEX
  8
20
 10
3.9000
 20
14.8590
 30
0.0000
 42
1.0000
  0
VERTEX
  8
20
 10
3.9000
 20
15.0114
 30
0.0000
  0
VERTEX
  8
20
 10
1.7000
 20
15.0114
 30
0.0000
 42
1.0000
  0
SEQEND
  8
0
  0
POLYLINE
  8
20
 66
1
 10
0.0000
 20
0.0000
 30
0.0000
 40
0.0000
 41
0.0000
 70
1
  0
VERTEX
  8
20
 10
1.7000
 20
15.0114
 30
0.0000
  0
VERTEX
  8
20
 10
3.9000
 20
15.0114
 30
0.0000
 42
1.0000
  0
VERTEX
  8
20
 10
3.9000
 20
15.1638
 30
0.0000
  0
VERTEX
  8
20
 10
1.7000
 20
15.1638
 30
0.0000
 42
1.0000
  0
SEQEND
  8
0
  0
POLYLINE
  8
20
 66
1
 10
0.0000
 20
0.0000
 30
0.0000
 40
0.0000
 41
0.0000
 70
1
  0
VERTEX
  8
20
 10
1.7000
 20
15.1638
 30
0.0000
  0
VERTEX
  8
20
 10
3.9000
 20
15.1638
 30
0.0000
 42
1.0000
  0
VERTEX
  8
20
 10
3.9000
 20
15.3162
 30
0.0000
  0
VERTEX
  8
20
 10
1.7000
 20
15.3162
 30
0.0000
 42
1.0000
  0
SEQEND
  8
0
  0
POLYLINE
  8
20
 66
1
 10
0.0000
 20
0.0000
 30
0.0000
 40
0.0000
 41
0.0000
 70
1
  0
VERTEX
  8
20
 10
1.7000
 20
15.3162
 30
0.0000
  0
VERTEX
  8
20
 10
3.9000
 20
15.3162
 30
0.0000
 42
1.0000
  0
VERTEX
  8
20
 10
3.9000
 20
15.4686
 30
0.0000
  0
VERTEX
  8
20
 10
1.7000
 20
15.4686
 30
0.0000
 42
1.0000
  0
SEQEND
  8
0
  0
POLYLINE
  8
20
 66
1
 10
0.0000
 20
0.0000
 30
0.0000
 40
0.0000
 41
0.0000
 70
1
  0
VERTEX
  8
20
 10
1.7000
 20
15.4686
 30
0.0000
  0
VERTEX
  8
20
 10
3.9000
 20
15.4686
 30
0.0000
 42
1.0000
  0
VERTEX
  8
20
 10
3.9000
 20
15.6210
 30
0.0000
  0
VERTEX
  8
20
 10
1.7000
 20
15.6210
 30
0.0000
 42
1.0000
  0
SEQEND
  8
0
  0
POLYLINE
  8
20
 66
1
 10
0.0000
 20
0.0000
 30
0.0000
 40
0.0000
 41
0.0000
 70
1
  0
VERTEX
  8
20
 10
1.7000
 20
15.6210
 30
0.0000
  0
VERTEX
  8
20
 10
3.9000
 20
15.6210
 30
0.0000
 42
1.0000
  0
VERTEX
  8
20
 10
3.9000
 20
15.7734
 30
0.0000
  0
VERTEX
  8
20
 10
1.7000
 20
15.7734
 30
0.0000
 42
1.0000
  0
SEQEND
  8
0
  0
POLYLINE
  8
20
 66
1
 10
0.0000
 20
0.0000
 30
0.0000
 40
0.0000
 41
0.0000
 70
1
  0
VERTEX
  8
20
 10
1.7000
 20
15.7734
 30
0.0000
  0
VERTEX
  8
20
 10
3.9000
 20
15.7734
 30
0.0000
 42
1.0000
  0
VERTEX
  8
20
 10
3.9000
 20
15.9258
 30
0.0000
  0
VERTEX
  8
20
 10
1.7000
 20
15.9258
 30
0.0000
 42
1.0000
  0
SEQEND
  8
0
  0
POLYLINE
  8
20
 66
1
 10
0.0000
 20
0.0000
 30
0.0000
 40
0.0000
 41
0.0000
 70
1
  0
VERTEX
  8
20
 10
1.7000
 20
15.9258
 30
0.0000
  0
VERTEX
  8
20
 10
3.9000
 20
15.9258
 30
0.0000
 42
1.0000
  0
VERTEX
  8
20
 10
3.9000
 20
16.0782
 30
0.0000
  0
VERTEX
  8
20
 10
1.7000
 20
16.0782
 30
0.0000
 42
1.0000
  0
SEQEND
  8
0
  0
POLYLINE
  8
20
 66
1
 10
0.0000
 20
0.0000
 30
0.0000
 40
0.0000
 41
0.0000
 70
1
  0
VERTEX
  8
20
 10
1.7000
 20
16.0782
 30
0.0000
  0
VERTEX
  8
20
 10
3.9000
 20
16.0782
 30
0.0000
 42
1.0000
  0
VERTEX
  8
20
 10
3.9000
 20
16.2306
 30
0.0000
  0
VERTEX
  8
20
 10
1.7000
 20
16.2306
 30
0.0000
 42
1.0000
  0
SEQEND
  8
0
  0
POLYLINE
  8
20
 66
1
 10
0.0000
 20
0.0000
 30
0.0000
 40
0.0000
 41
0.0000
 70
1
  0
VERTEX
  8
20
 10
1.7000
 20
16.2306
 30
0.0000
  0
VERTEX
  8
20
 10
3.9000
 20
16.2306
 30
0.0000
 42
1.0000
  0
VERTEX
  8
20
 10
3.9000
 20
16.3830
 30
0.0000
  0
VERTEX
  8
20
 10
1.7000
 20
16.3830
 30
0.0000
 42
1.0000
  0
SEQEND
  8
0
  0
POLYLINE
  8
20
 66
1
 10
0.0000
 20
0.0000
 30
0.0000
 40
0.0000
 41
0.0000
 70
1
  0
VERTEX
  8
20
 10
1.7000
 20
16.3830
 30
0.0000
  0
VERTEX
  8
20
 10
3.9000
 20
16.3830
 30
0.0000
 42
1.0000
  0
VERTEX
  8
20
 10
3.9000
 20
16.5354
 30
0.0000
  0
VERTEX
  8
20
 10
1.7000
 20
16.5354
 30
0.0000
 42
1.0000
  0
SEQEND
  8
0
  0
POLYLINE
  8
20
 66
1
 10
0.0000
 20
0.0000
 30
0.0000
 40
0.0000
 41
0.0000
 70
1
  0
VERTEX
  8
20
 10
1.7000
 20
16.5354
 30
0.0000
  0
VERTEX
  8
20
 10
3.9000
 20
16.5354
 30
0.0000
 42
1.0000
  0
VERTEX
  8
20
 10
3.9000
 20
16.6878
 30
0.0000
  0
VERTEX
  8
20
 10
1.7000
 20
16.6878
 30
0.0000
 42
1.0000
  0
SEQEND
  8
0
  0
POLYLINE
  8
20
 66
1
 10
0.0000
 20
0.0000
 30
0.0000
 40
0.0000
 41
0.0000
 70
1
  0
VERTEX
  8
20
 10
1.7000
 20
16.6878
 30
0.0000
  0
VERTEX
  8
20
 10
3.9000
 20
16.6878
 30
0.0000
 42
1.0000
  0
VERTEX
  8
20
 10
3.9000
 20
16.8402
 30
0.0000
  0
VERTEX
  8
20
 10
1.7000
 20
16.8402
 30
0.0000
 42
1.0000
  0
SEQEND
  8
0
  0
POLYLINE
  8
20
 66
1
 10
0.0000
 20
0.0000
 30
0.0000
 40
0.0000
 41
0.0000
 70
1
  0
VERTEX
  8
20
 10
1.7000
 20
16.8402
 30
0.0000
  0
VERTEX
  8
20
 10
3.9000
 20
16.8402
 30
0.0000
 42
1.0000
  0
VERTEX
  8
20
 10
3.9000
 20
16.9926
 30
0.0000
  0
VERTEX
  8
20
 10
1.7000
 20
16.9926
 30
0.0000
 42
1.0000
  0
SEQEND
  8
0
  0
POLYLINE
  8
20
 66
1
 10
0.0000
 20
0.0000
 30
0.0000
 40
0.0000
 41
0.0000
 70
1
  0
VERTEX
  8
20
 10
1.7000
 20
16.9926
 30
0.0000
  0
VERTEX
  8
20
 10
3.9000
 20
16.9926
 30
0.0000
 42
1.0000
  0
VERTEX
  8
20
 10
3.9000
 20
17.1450
 30
0.0000
  0
VERTEX
  8
20
 10
1.7000
 20
17.1450
 30
0.0000
 42
1.0000
  0
SEQEND
  8
0
  0
POLYLINE
  8
20
 66
1
 10
0.0000
 20
0.0000
 30
0.0000
 40
0.0000
 41
0.0000
 70
1
  0
VERTEX
  8
20
 10
1.7000
 20
17.1450
 30
0.0000
  0
VERTEX
  8
20
 10
3.9000
 20
17.1450
 30
0.0000
 42
1.0000
  0
VERTEX
  8
20
 10
3.9000
 20
17.2974
 30
0.0000
  0
VERTEX
  8
20
 10
1.7000
 20
17.2974
 30
0.0000
 42
1.0000
  0
SEQEND
  8
0
  0
POLYLINE
  8
20
 66
1
 10
0.0000
 20
0.0000
 30
0.0000
 40
0.0000
 41
0.0000
 70
1
  0
VERTEX
  8
20
 10
1.7000
 20
17.2974
 30
0.0000
  0
VERTEX
  8
20
 10
3.9000
 20
17.2974
 30
0.0000
 42
1.0000
  0
VERTEX
  8
20
 10
3.9000
 20
17.4498
 30
0.0000
  0
VERTEX
  8
20
 10
1.7000
 20
17.4498
 30
0.0000
 42
1.0000
  0
SEQEND
  8
0
  0
POLYLINE
  8
20
 66
1
 10
0.0000
 20
0.0000
 30
0.0000
 40
0.0000
 41
0.0000
 70
1
  0
VERTEX
  8
20
 10
1.7000
 20
17.4498
 30
0.0000
  0
VERTEX
  8
20
 10
3.9000
 20
17.4498
 30
0.0000
 42
1.0000
  0
VERTEX
  8
20
 10
3.9000
 20
17.6022
 30
0.0000
  0
VERTEX
  8
20
 10
1.7000
 20
17.6022
 30
0.0000
 42
1.0000
  0
SEQEND
  8
0
  0
POLYLINE
  8
20
 66
1
 10
0.0000
 20
0.0000
 30
0.0000
 40
0.0000
 41
0.0000
 70
1
  0
VERTEX
  8
20
 10
1.7000
 20
17.6022
 30
0.0000
  0
VERTEX
  8
20
 10
3.9000
 20
17.6022
 30
0.0000
 42
1.0000
  0
VERTEX
  8
20
 10
3.9000
 20
17.7546
 30
0.0000
  0
VERTEX
  8
20
 10
1.7000
 20
17.7546
 30
0.0000
 42
1.0000
  0
SEQEND
  8
0
  0
POLYLINE
  8
20
 66
1
 10
0.0000
 20
0.0000
 30
0.0000
 40
0.0000
 41
0.0000
 70
1
  0
VERTEX
  8
20
 10
1.7000
 20
17.7546
 30
0.0000
  0
VERTEX
  8
20
 10
3.9000
 20
17.7546
 30
0.0000
 42
1.0000
  0
VERTEX
  8
20
 10
3.9000
 20
17.9070
 30
0.0000
  0
VERTEX
  8
20
 10
1.7000
 20
17.9070
 30
0.0000
 42
1.0000
  0
SEQEND
  8
0
  0
POLYLINE
  8
20
 66
1
 10
0.0000
 20
0.0000
 30
0.0000
 40
0.0000
 41
0.0000
 70
1
  0
VERTEX
  8
20
 10
1.7000
 20
17.9070
 30
0.0000
  0
VERTEX
  8
20
 10
3.9000
 20
17.9070
 30
0.0000
 42
1.0000
  0
VERTEX
  8
20
 10
3.9000
 20
18.0594
 30
0.0000
  0
VERTEX
  8
20
 10
1.7000
 20
18.0594
 30
0.0000
 42
1.0000
  0
SEQEND
  8
0
  0
POLYLINE
  8
20
 66
1
 10
0.0000
 20
0.0000
 30
0.0000
 40
0.0000
 41
0.0000
 70
1
  0
VERTEX
  8
20
 10
1.7000
 20
18.0594
 30
0.0000
  0
VERTEX
  8
20
 10
3.9000
 20
18.0594
 30
0.0000
 42
1.0000
  0
VERTEX
  8
20
 10
3.9000
 20
18.2118
 30
0.0000
  0
VERTEX
  8
20
 10
1.7000
 20
18.2118
 30
0.0000
 42
1.0000
  0
SEQEND
  8
0
  0
POLYLINE
  8
20
 66
1
 10
0.0000
 20
0.0000
 30
0.0000
 40
0.0000
 41
0.0000
 70
1
  0
VERTEX
  8
20
 10
1.7000
 20
18.2118
 30
0.0000
  0
VERTEX
  8
20
 10
3.9000
 20
18.2118
 30
0.0000
 42
1.0000
  0
VERTEX
  8
20
 10
3.9000
 20
18.3642
 30
0.0000
  0
VERTEX
  8
20
 10
1.7000
 20
18.3642
 30
0.0000
 42
1.0000
  0
SEQEND
  8
0
  0
POLYLINE
  8
20
 66
1
 10
0.0000
 20
0.0000
 30
0.0000
 40
0.0000
 41
0.0000
 70
1
  0
VERTEX
  8
20
 10
1.7000
 20
18.3642
 30
0.0000
  0
VERTEX
  8
20
 10
3.9000
 20
18.3642
 30
0.0000
 42
1.0000
  0
VERTEX
  8
20
 10
3.9000
 20
18.5166
 30
0.0000
  0
VERTEX
  8
20
 10
1.7000
 20
18.5166
 30
0.0000
 42
1.0000
  0
SEQEND
  8
0
  0
POLYLINE
  8
20
 66
1
 10
0.0000
 20
0.0000
 30
0.0000
 40
0.0000
 41
0.0000
 70
1
  0
VERTEX
  8
20
 10
1.7000
 20
18.5166
 30
0.0000
  0
VERTEX
  8
20
 10
3.9000
 20
18.5166
 30
0.0000
 42
1.0000
  0
VERTEX
  8
20
 10
3.9000
 20
18.6690
 30
0.0000
  0
VERTEX
  8
20
 10
1.7000
 20
18.6690
 30
0.0000
 42
1.0000
  0
SEQEND
  8
0
  0
POLYLINE
  8
20
 66
1
 10
0.0000
 20
0.0000
 30
0.0000
 40
0.0000
 41
0.0000
 70
1
  0
VERTEX
  8
20
 10
1.7000
 20
18.6690
 30
0.0000
  0
VERTEX
  8
20
 10
3.9000
 20
18.6690
 30
0.0000
 42
1.0000
  0
VERTEX
  8
20
 10
3.9000
 20
18.8214
 30
0.0000
  0
VERTEX
  8
20
 10
1.7000
 20
18.8214
 30
0.0000
 42
1.0000
  0
SEQEND
  8
0
  0
POLYLINE
  8
20
 66
1
 10
0.0000
 20
0.0000
 30
0.0000
 40
0.0000
 41
0.0000
 70
1
  0
VERTEX
  8
20
 10
1.7000
 20
18.8214
 30
0.0000
  0
VERTEX
  8
20
 10
3.9000
 20
18.8214
 30
0.0000
 42
1.0000
  0
VERTEX
  8
20
 10
3.9000
 20
18.9738
 30
0.0000
  0
VERTEX
  8
20
 10
1.7000
 20
18.9738
 30
0.0000
 42
1.0000
  0
SEQEND
  8
0
  0
POLYLINE
  8
20
 66
1
 10
0.0000
 20
0.0000
 30
0.0000
 40
0.0000
 41
0.0000
 70
1
  0
VERTEX
  8
20
 10
1.7000
 20
18.9738
 30
0.0000
  0
VERTEX
  8
20
 10
3.9000
 20
18.9738
 30
0.0000
 42
1.0000
  0
VERTEX
  8
20
 10
3.9000
 20
19.1262
 30
0.0000
  0
VERTEX
  8
20
 10
1.7000
 20
19.1262
 30
0.0000
 42
1.0000
  0
SEQEND
  8
0
  0
POLYLINE
  8
20
 66
1
 10
0.0000
 20
0.0000
 30
0.0000
 40
0.0000
 41
0.0000
 70
1
  0
VERTEX
  8
20
 10
1.7000
 20
19.1262
 30
0.0000
  0
VERTEX
  8
20
 10
3.9000
 20
19.1262
 30
0.0000
 42
1.0000
  0
VERTEX
  8
20
 10
3.9000
 20
19.2786
 30
0.0000
  0
VERTEX
  8
20
 10
1.7000
 20
19.2786
 30
0.0000
 42
1.0000
  0
SEQEND
  8
0
  0
POLYLINE
  8
20
 66
1
 10
0.0000
 20
0.0000
 30
0.0000
 40
0.0000
 41
0.0000
 70
1
  0
VERTEX
  8
20
 10
1.7000
 20
19.2786
 30
0.0000
  0
VERTEX
  8
20
 10
3.9000
 20
19.2786
 30
0.0000
 42
1.0000
  0
VERTEX
  8
20
 10
3.9000
 20
19.4310
 30
0.0000
  0
VERTEX
  8
20
 10
1.7000
 20
19.4310
 30
0.0000
 42
1.0000
  0
SEQEND
  8
0
  0
POLYLINE
  8
20
 66
1
 10
0.0000
 20
0.0000
 30
0.0000
 40
0.0000
 41
0.0000
 70
1
  0
VERTEX
  8
20
 10
1.7000
 20
19.4310
 30
0.0000
  0
VERTEX
  8
20
 10
3.9000
 20
19.4310
 30
0.0000
 42
1.0000
  0
VERTEX
  8
20
 10
3.9000
 20
19.5834
 30
0.0000
  0
VERTEX
  8
20
 10
1.7000
 20
19.5834
 30
0.0000
 42
1.0000
  0
SEQEND
  8
0
  0
POLYLINE
  8
20
 66
1
 10
0.0000
 20
0.0000
 30
0.0000
 40
0.0000
 41
0.0000
 70
1
  0
VERTEX
  8
20
 10
1.7000
 20
19.5834
 30
0.0000
  0
VERTEX
  8
20
 10
3.9000
 20
19.5834
 30
0.0000
 42
1.0000
  0
VERTEX
  8
20
 10
3.9000
 20
19.7358
 30
0.0000
  0
VERTEX
  8
20
 10
1.7000
 20
19.7358
 30
0.0000
 42
1.0000
  0
SEQEND
  8
0
  0
POLYLINE
  8
20
 66
1
 10
0.0000
 20
0.0000
 30
0.0000
 40
0.0000
 41
0.0000
 70
1
  0
VERTEX
  8
20
 10
1.7000
 20
19.7358
 30
0.0000
  0
VERTEX
  8
20
 10
3.9000
 20
19.7358
 30
0.0000
 42
1.0000
  0
VERTEX
  8
20
 10
3.9000
 20
19.8882
 30
0.0000
  0
VERTEX
  8
20
 10
1.7000
 20
19.8882
 30
0.0000
 42
1.0000
  0
SEQEND
  8
0
  0
POLYLINE
  8
20
 66
1
 10
0.0000
 20
0.0000
 30
0.0000
 40
0.0000
 41
0.0000
 70
1
  0
VERTEX
  8
20
 10
1.7000
 20
19.8882
 30
0.0000
  0
VERTEX
  8
20
 10
3.9000
 20
19.8882
 30
0.0000
 42
1.0000
  0
VERTEX
  8
20
 10
3.9000
 20
20.0406
 30
0.0000
  0
VERTEX
  8
20
 10
1.7000
 20
20.0406
 30
0.0000
 42
1.0000
  0
SEQEND
  8
0
  0
POLYLINE
  8
20
 66
1
 10
0.0000
 20
0.0000
 30
0.0000
 40
0.0000
 41
0.0000
 70
1
  0
VERTEX
  8
20
 10
1.7000
 20
20.0406
 30
0.0000
  0
VERTEX
  8
20
 10
3.9000
 20
20.0406
 30
0.0000
 42
1.0000
  0
VERTEX
  8
20
 10
3.9000
 20
20.1930
 30
0.0000
  0
VERTEX
  8
20
 10
1.7000
 20
20.1930
 30
0.0000
 42
1.0000
  0
SEQEND
  8
0
  0
POLYLINE
  8
20
 66
1
 10
0.0000
 20
0.0000
 30
0.0000
 40
0.0000
 41
0.0000
 70
1
  0
VERTEX
  8
20
 10
1.7000
 20
20.1930
 30
0.0000
  0
VERTEX
  8
20
 10
3.9000
 20
20.1930
 30
0.0000
 42
1.0000
  0
VERTEX
  8
20
 10
3.9000
 20
20.3454
 30
0.0000
  0
VERTEX
  8
20
 10
1.7000
 20
20.3454
 30
0.0000
 42
1.0000
  0
SEQEND
  8
0
  0
POLYLINE
  8
20
 66
1
 10
0.0000
 20
0.0000
 30
0.0000
 40
0.0000
 41
0.0000
 70
1
  0
VERTEX
  8
20
 10
1.7000
 20
20.3454
 30
0.0000
  0
VERTEX
  8
20
 10
3.9000
 20
20.3454
 30
0.0000
 42
1.0000
  0
VERTEX
  8
20
 10
3.9000
 20
20.4978
 30
0.0000
  0
VERTEX
  8
20
 10
1.7000
 20
20.4978
 30
0.0000
 42
1.0000
  0
SEQEND
  8
0
  0
POLYLINE
  8
20
 66
1
 10
0.0000
 20
0.0000
 30
0.0000
 40
0.0000
 41
0.0000
 70
1
  0
VERTEX
  8
20
 10
1.7000
 20
20.4978
 30
0.0000
  0
VERTEX
  8
20
 10
3.9000
 20
20.4978
 30
0.0000
 42
1.0000
  0
VERTEX
  8
20
 10
3.9000
 20
20.6502
 30
0.0000
  0
VERTEX
  8
20
 10
1.7000
 20
20.6502
 30
0.0000
 42
1.0000
  0
SEQEND
  8
0
  0
POLYLINE
  8
20
 66
1
 10
0.0000
 20
0.0000
 30
0.0000
 40
0.0000
 41
0.0000
 70
1
  0
VERTEX
  8
20
 10
1.7000
 20
20.6502
 30
0.0000
  0
VERTEX
  8
20
 10
3.9000
 20
20.6502
 30
0.0000
 42
1.0000
  0
VERTEX
  8
20
 10
3.9000
 20
20.8026
 30
0.0000
  0
VERTEX
  8
20
 10
1.7000
 20
20.8026
 30
0.0000
 42
1.0000
  0
SEQEND
  8
0
  0
POLYLINE
  8
20
 66
1
 10
0.0000
 20
0.0000
 30
0.0000
 40
0.0000
 41
0.0000
 70
1
  0
VERTEX
  8
20
 10
1.7000
 20
20.8026
 30
0.0000
  0
VERTEX
  8
20
 10
3.9000
 20
20.8026
 30
0.0000
 42
1.0000
  0
VERTEX
  8
20
 10
3.9000
 20
20.9550
 30
0.0000
  0
VERTEX
  8
20
 10
1.7000
 20
20.9550
 30
0.0000
 42
1.0000
  0
SEQEND
  8
0
  0
POLYLINE
  8
20
 66
1
 10
0.0000
 20
0.0000
 30
0.0000
 40
0.0000
 41
0.0000
 70
1
  0
VERTEX
  8
20
 10
1.7000
 20
20.9550
 30
0.0000
  0
VERTEX
  8
20
 10
3.9000
 20
20.9550
 30
0.0000
 42
1.0000
  0
VERTEX
  8
20
 10
3.9000
 20
21.1074
 30
0.0000
  0
VERTEX
  8
20
 10
1.7000
 20
21.1074
 30
0.0000
 42
1.0000
  0
SEQEND
  8
0
  0
POLYLINE
  8
20
 66
1
 10
0.0000
 20
0.0000
 30
0.0000
 40
0.0000
 41
0.0000
 70
1
  0
VERTEX
  8
20
 10
1.7000
 20
21.1074
 30
0.0000
  0
VERTEX
  8
20
 10
3.9000
 20
21.1074
 30
0.0000
 42
1.0000
  0
VERTEX
  8
20
 10
3.9000
 20
21.2598
 30
0.0000
  0
VERTEX
  8
20
 10
1.7000
 20
21.2598
 30
0.0000
 42
1.0000
  0
SEQEND
  8
0
  0
POLYLINE
  8
20
 66
1
 10
0.0000
 20
0.0000
 30
0.0000
 40
0.0000
 41
0.0000
 70
1
  0
VERTEX
  8
20
 10
1.7000
 20
21.2598
 30
0.0000
  0
VERTEX
  8
20
 10
3.9000
 20
21.2598
 30
0.0000
 42
1.0000
  0
VERTEX
  8
20
 10
3.9000
 20
21.4122
 30
0.0000
  0
VERTEX
  8
20
 10
1.7000
 20
21.4122
 30
0.0000
 42
1.0000
  0
SEQEND
  8
0
  0
POLYLINE
  8
20
 66
1
 10
0.0000
 20
0.0000
 30
0.0000
 40
0.0000
 41
0.0000
 70
1
  0
VERTEX
  8
20
 10
1.7000
 20
21.4122
 30
0.0000
  0
VERTEX
  8
20
 10
3.9000
 20
21.4122
 30
0.0000
 42
1.0000
  0
VERTEX
  8
20
 10
3.9000
 20
21.5646
 30
0.0000
  0
VERTEX
  8
20
 10
1.7000
 20
21.5646
 30
0.0000
 42
1.0000
  0
SEQEND
  8
0
  0
POLYLINE
  8
20
 66
1
 10
0.0000
 20
0.0000
 30
0.0000
 40
0.0000
 41
0.0000
 70
1
  0
VERTEX
  8
20
 10
1.7000
 20
21.5646
 30
0.0000
  0
VERTEX
  8
20
 10
3.9000
 20
21.5646
 30
0.0000
 42
1.0000
  0
VERTEX
  8
20
 10
3.9000
 20
21.7170
 30
0.0000
  0
VERTEX
  8
20
 10
1.7000
 20
21.7170
 30
0.0000
 42
1.0000
  0
SEQEND
  8
0
  0
POLYLINE
  8
20
 66
1
 10
0.0000
 20
0.0000
 30
0.0000
 40
0.0000
 41
0.0000
 70
1
  0
VERTEX
  8
20
 10
1.7000
 20
21.7170
 30
0.0000
  0
VERTEX
  8
20
 10
3.9000
 20
21.7170
 30
0.0000
 42
1.0000
  0
VERTEX
  8
20
 10
3.9000
 20
21.8694
 30
0.0000
  0
VERTEX
  8
20
 10
1.7000
 20
21.8694
 30
0.0000
 42
1.0000
  0
SEQEND
  8
0
  0
POLYLINE
  8
20
 66
1
 10
0.0000
 20
0.0000
 30
0.0000
 40
0.0000
 41
0.0000
 70
1
  0
VERTEX
  8
20
 10
1.7000
 20
21.8694
 30
0.0000
  0
VERTEX
  8
20
 10
3.9000
 20
21.8694
 30
0.0000
 42
1.0000
  0
VERTEX
  8
20
 10
3.9000
 20
22.0218
 30
0.0000
  0
VERTEX
  8
20
 10
1.7000
 20
22.0218
 30
0.0000
 42
1.0000
  0
SEQEND
  8
0
  0
POLYLINE
  8
20
 66
1
 10
0.0000
 20
0.0000
 30
0.0000
 40
0.0000
 41
0.0000
 70
1
  0
VERTEX
  8
20
 10
1.7000
 20
22.0218
 30
0.0000
  0
VERTEX
  8
20
 10
3.9000
 20
22.0218
 30
0.0000
 42
1.0000
  0
VERTEX
  8
20
 10
3.9000
 20
22.1742
 30
0.0000
  0
VERTEX
  8
20
 10
1.7000
 20
22.1742
 30
0.0000
 42
1.0000
  0
SEQEND
  8
0
  0
POLYLINE
  8
20
 66
1
 10
0.0000
 20
0.0000
 30
0.0000
 40
0.0000
 41
0.0000
 70
1
  0
VERTEX
  8
20
 10
1.7000
 20
22.1742
 30
0.0000
  0
VERTEX
  8
20
 10
3.9000
 20
22.1742
 30
0.0000
 42
1.0000
  0
VERTEX
  8
20
 10
3.9000
 20
22.3266
 30
0.0000
  0
VERTEX
  8
20
 10
1.7000
 20
22.3266
 30
0.0000
 42
1.0000
  0
SEQEND
  8
0
  0
POLYLINE
  8
20
 66
1
 10
0.0000
 20
0.0000
 30
0.0000
 40
0.0000
 41
0.0000
 70
1
  0
VERTEX
  8
20
 10
1.7000
 20
22.3266
 30
0.0000
  0
VERTEX
  8
20
 10
3.9000
 20
22.3266
 30
0.0000
 42
1.0000
  0
VERTEX
  8
20
 10
3.9000
 20
22.4790
 30
0.0000
  0
VERTEX
  8
20
 10
1.7000
 20
22.4790
 30
0.0000
 42
1.0000
  0
SEQEND
  8
0
  0
POLYLINE
  8
20
 66
1
 10
0.0000
 20
0.0000
 30
0.0000
 40
0.0000
 41
0.0000
 70
1
  0
VERTEX
  8
20
 10
1.7000
 20
22.4790
 30
0.0000
  0
VERTEX
  8
20
 10
3.9000
 20
22.4790
 30
0.0000
 42
1.0000
  0
VERTEX
  8
20
 10
3.9000
 20
22.6314
 30
0.0000
  0
VERTEX
  8
20
 10
1.7000
 20
22.6314
 30
0.0000
 42
1.0000
  0
SEQEND
  8
0
  0
POLYLINE
  8
20
 66
1
 10
0.0000
 20
0.0000
 30
0.0000
 40
0.0000
 41
0.0000
 70
1
  0
VERTEX
  8
20
 10
1.7000
 20
22.6314
 30
0.0000
  0
VERTEX
  8
20
 10
3.9000
 20
22.6314
 30
0.0000
 42
1.0000
  0
VERTEX
  8
20
 10
3.9000
 20
22.7838
 30
0.0000
  0
VERTEX
  8
20
 10
1.7000
 20
22.7838
 30
0.0000
 42
1.0000
  0
SEQEND
  8
0
  0
POLYLINE
  8
20
 66
1
 10
0.0000
 20
0.0000
 30
0.0000
 40
0.0000
 41
0.0000
 70
1
  0
VERTEX
  8
20
 10
1.7000
 20
22.7838
 30
0.0000
  0
VERTEX
  8
20
 10
3.9000
 20
22.7838
 30
0.0000
 42
1.0000
  0
VERTEX
  8
20
 10
3.9000
 20
22.9362
 30
0.0000
  0
VERTEX
  8
20
 10
1.7000
 20
22.9362
 30
0.0000
 42
1.0000
  0
SEQEND
  8
0
  0
POLYLINE
  8
20
 66
1
 10
0.0000
 20
0.0000
 30
0.0000
 40
0.0000
 41
0.0000
 70
1
  0
VERTEX
  8
20
 10
1.7000
 20
22.9362
 30
0.0000
  0
VERTEX
  8
20
 10
3.9000
 20
22.9362
 30
0.0000
 42
1.0000
  0
VERTEX
  8
20
 10
3.9000
 20
23.0886
 30
0.0000
  0
VERTEX
  8
20
 10
1.7000
 20
23.0886
 30
0.0000
 42
1.0000
  0
SEQEND
  8
0
  0
POLYLINE
  8
20
 66
1
 10
0.0000
 20
0.0000
 30
0.0000
 40
0.0000
 41
0.0000
 70
1
  0
VERTEX
  8
20
 10
1.7000
 20
23.0886
 30
0.0000
  0
VERTEX
  8
20
 10
3.9000
 20
23.0886
 30
0.0000
 42
1.0000
  0
VERTEX
  8
20
 10
3.9000
 20
23.2410
 30
0.0000
  0
VERTEX
  8
20
 10
1.7000
 20
23.2410
 30
0.0000
 42
1.0000
  0
SEQEND
  8
0
  0
POLYLINE
  8
20
 66
1
 10
0.0000
 20
0.0000
 30
0.0000
 40
0.0000
 41
0.0000
 70
1
  0
VERTEX
  8
20
 10
1.7000
 20
23.2410
 30
0.0000
  0
VERTEX
  8
20
 10
3.9000
 20
23.2410
 30
0.0000
 42
1.0000
  0
VERTEX
  8
20
 10
3.9000
 20
23.3934
 30
0.0000
  0
VERTEX
  8
20
 10
1.7000
 20
23.3934
 30
0.0000
 42
1.0000
  0
SEQEND
  8
0
  0
POLYLINE
  8
20
 66
1
 10
0.0000
 20
0.0000
 30
0.0000
 40
0.0000
 41
0.0000
 70
1
  0
VERTEX
  8
20
 10
1.7000
 20
23.3934
 30
0.0000
  0
VERTEX
  8
20
 10
3.9000
 20
23.3934
 30
0.0000
 42
1.0000
  0
VERTEX
  8
20
 10
3.9000
 20
23.5458
 30
0.0000
  0
VERTEX
  8
20
 10
1.7000
 20
23.5458
 30
0.0000
 42
1.0000
  0
SEQEND
  8
0
  0
POLYLINE
  8
20
 66
1
 10
0.0000
 20
0.0000
 30
0.0000
 40
0.0000
 41
0.0000
 70
1
  0
VERTEX
  8
20
 10
1.7000
 20
23.5458
 30
0.0000
  0
VERTEX
  8
20
 10
3.9000
 20
23.5458
 30
0.0000
 42
1.0000
  0
VERTEX
  8
20
 10
3.9000
 20
23.6982
 30
0.0000
  0
VERTEX
  8
20
 10
1.7000
 20
23.6982
 30
0.0000
 42
1.0000
  0
SEQEND
  8
0
  0
POLYLINE
  8
20
 66
1
 10
0.0000
 20
0.0000
 30
0.0000
 40
0.0000
 41
0.0000
 70
1
  0
VERTEX
  8
20
 10
1.7000
 20
23.6982
 30
0.0000
  0
VERTEX
  8
20
 10
3.9000
 20
23.6982
 30
0.0000
 42
1.0000
  0
VERTEX
  8
20
 10
3.9000
 20
23.8506
 30
0.0000
  0
VERTEX
  8
20
 10
1.7000
 20
23.8506
 30
0.0000
 42
1.0000
  0
SEQEND
  8
0
  0
POLYLINE
  8
20
 66
1
 10
0.0000
 20
0.0000
 30
0.0000
 40
0.0000
 41
0.0000
 70
1
  0
VERTEX
  8
20
 10
1.7000
 20
23.8506
 30
0.0000
  0
VERTEX
  8
20
 10
3.9000
 20
23.8506
 30
0.0000
 42
1.0000
  0
VERTEX
  8
20
 10
3.9000
 20
24.0030
 30
0.0000
  0
VERTEX
  8
20
 10
1.7000
 20
24.0030
 30
0.0000
 42
1.0000
  0
SEQEND
  8
0
  0
POLYLINE
  8
20
 66
1
 10
0.0000
 20
0.0000
 30
0.0000
 40
0.0000
 41
0.0000
 70
1
  0
VERTEX
  8
20
 10
1.7000
 20
24.0030
 30
0.0000
  0
VERTEX
  8
20
 10
3.9000
 20
24.0030
 30
0.0000
 42
1.0000
  0
VERTEX
  8
20
 10
3.9000
 20
24.1554
 30
0.0000
  0
VERTEX
  8
20
 10
1.7000
 20
24.1554
 30
0.0000
 42
1.0000
  0
SEQEND
  8
0
  0
POLYLINE
  8
20
 66
1
 10
0.0000
 20
0.0000
 30
0.0000
 40
0.0000
 41
0.0000
 70
1
  0
VERTEX
  8
20
 10
1.7000
 20
24.1554
 30
0.0000
  0
VERTEX
  8
20
 10
3.9000
 20
24.1554
 30
0.0000
 42
1.0000
  0
VERTEX
  8
20
 10
3.9000
 20
24.3078
 30
0.0000
  0
VERTEX
  8
20
 10
1.7000
 20
24.3078
 30
0.0000
 42
1.0000
  0
SEQEND
  8
0
  0
POLYLINE
  8
20
 66
1
 10
0.0000
 20
0.0000
 30
0.0000
 40
0.0000
 41
0.0000
 70
1
  0
VERTEX
  8
20
 10
1.7000
 20
24.3078
 30
0.0000
  0
VERTEX
  8
20
 10
3.9000
 20
24.3078
 30
0.0000
 42
1.0000
  0
VERTEX
  8
20
 10
3.9000
 20
24.4602
 30
0.0000
  0
VERTEX
  8
20
 10
1.7000
 20
24.4602
 30
0.0000
 42
1.0000
  0
SEQEND
  8
0
  0
POLYLINE
  8
20
 66
1
 10
0.0000
 20
0.0000
 30
0.0000
 40
0.0000
 41
0.0000
 70
1
  0
VERTEX
  8
20
 10
1.7000
 20
24.4602
 30
0.0000
  0
VERTEX
  8
20
 10
3.9000
 20
24.4602
 30
0.0000
 42
1.0000
  0
VERTEX
  8
20
 10
3.9000
 20
24.6126
 30
0.0000
  0
VERTEX
  8
20
 10
1.7000
 20
24.6126
 30
0.0000
 42
1.0000
  0
SEQEND
  8
0
  0
POLYLINE
  8
20
 66
1
 10
0.0000
 20
0.0000
 30
0.0000
 40
0.0000
 41
0.0000
 70
1
  0
VERTEX
  8
20
 10
1.7000
 20
24.6126
 30
0.0000
  0
VERTEX
  8
20
 10
3.9000
 20
24.6126
 30
0.0000
 42
1.0000
  0
VERTEX
  8
20
 10
3.9000
 20
24.7650
 30
0.0000
  0
VERTEX
  8
20
 10
1.7000
 20
24.7650
 30
0.0000
 42
1.0000
  0
SEQEND
  8
0
  0
POLYLINE
  8
20
 66
1
 10
0.0000
 20
0.0000
 30
0.0000
 40
0.0000
 41
0.0000
 70
1
  0
VERTEX
  8
20
 10
1.7000
 20
24.7650
 30
0.0000
  0
VERTEX
  8
20
 10
3.9000
 20
24.7650
 30
0.0000
 42
1.0000
  0
VERTEX
  8
20
 10
3.9000
 20
24.9174
 30
0.0000
  0
VERTEX
  8
20
 10
1.7000
 20
24.9174
 30
0.0000
 42
1.0000
  0
SEQEND
  8
0
  0
POLYLINE
  8
20
 66
1
 10
0.0000
 20
0.0000
 30
0.0000
 40
0.0000
 41
0.0000
 70
1
  0
VERTEX
  8
20
 10
1.7000
 20
24.9174
 30
0.0000
  0
VERTEX
  8
20
 10
3.9000
 20
24.9174
 30
0.0000
 42
1.0000
  0
VERTEX
  8
20
 10
3.9000
 20
25.0698
 30
0.0000
  0
VERTEX
  8
20
 10
1.7000
 20
25.0698
 30
0.0000
 42
1.0000
  0
SEQEND
  8
0
  0
POLYLINE
  8
20
 66
1
 10
0.0000
 20
0.0000
 30
0.0000
 40
0.0000
 41
0.0000
 70
1
  0
VERTEX
  8
20
 10
1.7000
 20
25.0698
 30
0.0000
  0
VERTEX
  8
20
 10
3.9000
 20
25.0698
 30
0.0000
 42
1.0000
  0
VERTEX
  8
20
 10
3.9000
 20
25.2222
 30
0.0000
  0
VERTEX
  8
20
 10
1.7000
 20
25.2222
 30
0.0000
 42
1.0000
  0
SEQEND
  8
0
  0
POLYLINE
  8
20
 66
1
 10
0.0000
 20
0.0000
 30
0.0000
 40
0.0000
 41
0.0000
 70
1
  0
VERTEX
  8
20
 10
1.7000
 20
25.2222
 30
0.0000
  0
VERTEX
  8
20
 10
3.9000
 20
25.2222
 30
0.0000
 42
1.0000
  0
VERTEX
  8
20
 10
3.9000
 20
25.3746
 30
0.0000
  0
VERTEX
  8
20
 10
1.7000
 20
25.3746
 30
0.0000
 42
1.0000
  0
SEQEND
  8
0
  0
POLYLINE
  8
20
 66
1
 10
0.0000
 20
0.0000
 30
0.0000
 40
0.0000
 41
0.0000
 70
1
  0
VERTEX
  8
20
 10
1.7000
 20
25.3746
 30
0.0000
  0
VERTEX
  8
20
 10
3.9000
 20
25.3746
 30
0.0000
 42
1.0000
  0
VERTEX
  8
20
 10
3.9000
 20
25.5270
 30
0.0000
  0
VERTEX
  8
20
 10
1.7000
 20
25.5270
 30
0.0000
 42
1.0000
  0
SEQEND
  8
0
  0
POLYLINE
  8
20
 66
1
 10
0.0000
 20
0.0000
 30
0.0000
 40
0.0000
 41
0.0000
 70
1
  0
VERTEX
  8
20
 10
1.7000
 20
25.5270
 30
0.0000
  0
VERTEX
  8
20
 10
3.9000
 20
25.5270
 30
0.0000
 42
1.0000
  0
VERTEX
  8
20
 10
3.9000
 20
25.6794
 30
0.0000
  0
VERTEX
  8
20
 10
1.7000
 20
25.6794
 30
0.0000
 42
1.0000
  0
SEQEND
  8
0
  0
POLYLINE
  8
20
 66
1
 10
0.0000
 20
0.0000
 30
0.0000
 40
0.0000
 41
0.0000
 70
1
  0
VERTEX
  8
20
 10
1.7000
 20
25.6794
 30
0.0000
  0
VERTEX
  8
20
 10
3.9000
 20
25.6794
 30
0.0000
 42
1.0000
  0
VERTEX
  8
20
 10
3.9000
 20
25.8318
 30
0.0000
  0
VERTEX
  8
20
 10
1.7000
 20
25.8318
 30
0.0000
 42
1.0000
  0
SEQEND
  8
0
  0
POLYLINE
  8
20
 66
1
 10
0.0000
 20
0.0000
 30
0.0000
 40
0.0000
 41
0.0000
 70
1
  0
VERTEX
  8
20
 10
1.7000
 20
25.8318
 30
0.0000
  0
VERTEX
  8
20
 10
3.9000
 20
25.8318
 30
0.0000
 42
1.0000
  0
VERTEX
  8
20
 10
3.9000
 20
25.9842
 30
0.0000
  0
VERTEX
  8
20
 10
1.7000
 20
25.9842
 30
0.0000
 42
1.0000
  0
SEQEND
  8
0
  0
POLYLINE
  8
20
 66
1
 10
0.0000
 20
0.0000
 30
0.0000
 40
0.0000
 41
0.0000
 70
1
  0
VERTEX
  8
20
 10
1.7000
 20
25.9842
 30
0.0000
  0
VERTEX
  8
20
 10
3.9000
 20
25.9842
 30
0.0000
 42
1.0000
  0
VERTEX
  8
20
 10
3.9000
 20
26.1366
 30
0.0000
  0
VERTEX
  8
20
 10
1.7000
 20
26.1366
 30
0.0000
 42
1.0000
  0
SEQEND
  8
0
  0
POLYLINE
  8
20
 66
1
 10
0.0000
 20
0.0000
 30
0.0000
 40
0.0000
 41
0.0000
 70
1
  0
VERTEX
  8
20
 10
1.7000
 20
26.1366
 30
0.0000
  0
VERTEX
  8
20
 10
3.9000
 20
26.1366
 30
0.0000
 42
1.0000
  0
VERTEX
  8
20
 10
3.9000
 20
26.2890
 30
0.0000
  0
VERTEX
  8
20
 10
1.7000
 20
26.2890
 30
0.0000
 42
1.0000
  0
SEQEND
  8
0
  0
POLYLINE
  8
20
 66
1
 10
0.0000
 20
0.0000
 30
0.0000
 40
0.0000
 41
0.0000
 70
1
  0
VERTEX
  8
20
 10
1.7000
 20
26.2890
 30
0.0000
  0
VERTEX
  8
20
 10
3.9000
 20
26.2890
 30
0.0000
 42
1.0000
  0
VERTEX
  8
20
 10
3.9000
 20
26.4414
 30
0.0000
  0
VERTEX
  8
20
 10
1.7000
 20
26.4414
 30
0.0000
 42
1.0000
  0
SEQEND
  8
0
  0
POLYLINE
  8
20
 66
1
 10
0.0000
 20
0.0000
 30
0.0000
 40
0.0000
 41
0.0000
 70
1
  0
VERTEX
  8
20
 10
1.7000
 20
26.4414
 30
0.0000
  0
VERTEX
  8
20
 10
3.9000
 20
26.4414
 30
0.0000
 42
1.0000
  0
VERTEX
  8
20
 10
3.9000
 20
26.5938
 30
0.0000
  0
VERTEX
  8
20
 10
1.7000
 20
26.5938
 30
0.0000
 42
1.0000
  0
SEQEND
  8
0
  0
POLYLINE
  8
20
 66
1
 10
0.0000
 20
0.0000
 30
0.0000
 40
0.0000
 41
0.0000
 70
1
  0
VERTEX
  8
20
 10
1.7000
 20
26.5938
 30
0.0000
  0
VERTEX
  8
20
 10
3.9000
 20
26.5938
 30
0.0000
 42
1.0000
  0
VERTEX
  8
20
 10
3.9000
 20
26.7462
 30
0.0000
  0
VERTEX
  8
20
 10
1.7000
 20
26.7462
 30
0.0000
 42
1.0000
  0
SEQEND
  8
0
  0
POLYLINE
  8
20
 66
1
 10
0.0000
 20
0.0000
 30
0.0000
 40
0.0000
 41
0.0000
 70
1
  0
VERTEX
  8
20
 10
1.7000
 20
26.7462
 30
0.0000
  0
VERTEX
  8
20
 10
3.9000
 20
26.7462
 30
0.0000
 42
1.0000
  0
VERTEX
  8
20
 10
3.9000
 20
26.8986
 30
0.0000
  0
VERTEX
  8
20
 10
1.7000
 20
26.8986
 30
0.0000
 42
1.0000
  0
SEQEND
  8
0
  0
POLYLINE
  8
20
 66
1
 10
0.0000
 20
0.0000
 30
0.0000
 40
0.0000
 41
0.0000
 70
1
  0
VERTEX
  8
20
 10
1.7000
 20
26.8986
 30
0.0000
  0
VERTEX
  8
20
 10
3.9000
 20
26.8986
 30
0.0000
 42
1.0000
  0
VERTEX
  8
20
 10
3.9000
 20
27.0510
 30
0.0000
  0
VERTEX
  8
20
 10
1.7000
 20
27.0510
 30
0.0000
 42
1.0000
  0
SEQEND
  8
0
  0
POLYLINE
  8
20
 66
1
 10
0.0000
 20
0.0000
 30
0.0000
 40
0.0000
 41
0.0000
 70
1
  0
VERTEX
  8
20
 10
1.7000
 20
27.0510
 30
0.0000
  0
VERTEX
  8
20
 10
3.9000
 20
27.0510
 30
0.0000
 42
1.0000
  0
VERTEX
  8
20
 10
3.9000
 20
27.2034
 30
0.0000
  0
VERTEX
  8
20
 10
1.7000
 20
27.2034
 30
0.0000
 42
1.0000
  0
SEQEND
  8
0
  0
POLYLINE
  8
20
 66
1
 10
0.0000
 20
0.0000
 30
0.0000
 40
0.0000
 41
0.0000
 70
1
  0
VERTEX
  8
20
 10
1.7000
 20
27.2034
 30
0.0000
  0
VERTEX
  8
20
 10
3.9000
 20
27.2034
 30
0.0000
 42
1.0000
  0
VERTEX
  8
20
 10
3.9000
 20
27.3558
 30
0.0000
  0
VERTEX
  8
20
 10
1.7000
 20
27.3558
 30
0.0000
 42
1.0000
  0
SEQEND
  8
0
  0
POLYLINE
  8
20
 66
1
 10
0.0000
 20
0.0000
 30
0.0000
 40
0.0000
 41
0.0000
 70
1
  0
VERTEX
  8
20
 10
1.8320
 20
27.3558
 30
0.0000
  0
VERTEX
  8
20
 10
3.9000
 20
27.3558
 30
0.0000
 42
1.0000
  0
VERTEX
  8
20
 10
3.9000
 20
27.5082
 30
0.0000
  0
VERTEX
  8
20
 10
1.8320
 20
27.5082
 30
0.0000
 42
1.0000
  0
SEQEND
  8
0
  0
POLYLINE
  8
20
 66
1
 10
0.0000
 20
0.0000
 30
0.0000
 40
0.0000
 41
0.0000
 70
1
  0
VERTEX
  8
20
 10
1.9844
 20
27.5082
 30
0.0000
  0
VERTEX
  8
20
 10
3.9000
 20
27.5082
 30
0.0000
 42
1.0000
  0
VERTEX
  8
20
 10
3.9000
 20
27.6606
 30
0.0000
  0
VERTEX
  8
20
 10
1.9844
 20
27.6606
 30
0.0000
 42
1.0000
  0
SEQEND
  8
0
  0
POLYLINE
  8
20
 66
1
 10
0.0000
 20
0.0000
 30
0.0000
 40
0.0000
 41
0.0000
 70
1
  0
VERTEX
  8
20
 10
2.1368
 20
27.6606
 30
0.0000
  0
VERTEX
  8
20
 10
3.9000
 20
27.6606
 30
0.0000
 42
1.0000
  0
VERTEX
  8
20
 10
3.9000
 20
27.8130
 30
0.0000
  0
VERTEX
  8
20
 10
2.1368
 20
27.8130
 30
0.0000
 42
1.0000
  0
SEQEND
  8
0
  0
POLYLINE
  8
20
 66
1
 10
0.0000
 20
0.0000
 30
0.0000
 40
0.0000
 41
0.0000
 70
1
  0
VERTEX
  8
20
 10
2.2892
 20
27.8130
 30
0.0000
  0
VERTEX
  8
20
 10
3.9000
 20
27.8130
 30
0.0000
 42
1.0000
  0
VERTEX
  8
20
 10
3.9000
 20
27.9654
 30
0.0000
  0
VERTEX
  8
20
 10
2.2892
 20
27.9654
 30
0.0000
 42
1.0000
  0
SEQEND
  8
0
  0
POLYLINE
  8
20
 66
1
 10
0.0000
 20
0.0000
 30
0.0000
 40
0.0000
 41
0.0000
 70
1
  0
VERTEX
  8
20
 10
2.4416
 20
27.9654
 30
0.0000
  0
VERTEX
  8
20
 10
3.9000
 20
27.9654
 30
0.0000
 42
1.0000
  0
VERTEX
  8
20
 10
3.9000
 20
28.1178
 30
0.0000
  0
VERTEX
  8
20
 10
2.4416
 20
28.1178
 30
0.0000
 42
1.0000
  0
SEQEND
  8
0
  0
POLYLINE
  8
20
 66
1
 10
0.0000
 20
0.0000
 30
0.0000
 40
0.0000
 41
0.0000
 70
1
  0
VERTEX
  8
20
 10
2.5940
 20
28.1178
 30
0.0000
  0
VERTEX
  8
20
 10
3.9000
 20
28.1178
 30
0.0000
 42
1.0000
  0
VERTEX
  8
20
 10
3.9000
 20
28.2702
 30
0.0000
  0
VERTEX
  8
20
 10
2.5940
 20
28.2702
 30
0.0000
 42
1.0000
  0
SEQEND
  8
0
  0
POLYLINE
  8
20
 66
1
 10
0.0000
 20
0.0000
 30
0.0000
 40
0.0000
 41
0.0000
 70
1
  0
VERTEX
  8
20
 10
2.7464
 20
28.2702
 30
0.0000
  0
VERTEX
  8
20
 10
3.9000
 20
28.2702
 30
0.0000
 42
1.0000
  0
VERTEX
  8
20
 10
3.9000
 20
28.4226
 30
0.0000
  0
VERTEX
  8
20
 10
2.7464
 20
28.4226
 30
0.0000
 42
1.0000
  0
SEQEND
  8
0
  0
POLYLINE
  8
20
 66
1
 10
0.0000
 20
0.0000
 30
0.0000
 40
0.0000
 41
0.0000
 70
1
  0
VERTEX
  8
20
 10
2.8988
 20
28.4226
 30
0.0000
  0
VERTEX
  8
20
 10
3.9000
 20
28.4226
 30
0.0000
 42
1.0000
  0
VERTEX
  8
20
 10
3.9000
 20
28.5750
 30
0.0000
  0
VERTEX
  8
20
 10
2.8988
 20
28.5750
 30
0.0000
 42
1.0000
  0
SEQEND
  8
0
  0
POLYLINE
  8
20
 66
1
 10
0.0000
 20
0.0000
 30
0.0000
 40
0.0000
 41
0.0000
 70
1
  0
VERTEX
  8
20
 10
3.0512
 20
28.5750
 30
0.0000
  0
VERTEX
  8
20
 10
3.9000
 20
28.5750
 30
0.0000
 42
1.0000
  0
VERTEX
  8
20
 10
3.9000
 20
28.7274
 30
0.0000
  0
VERTEX
  8
20
 10
3.0512
 20
28.7274
 30
0.0000
 42
1.0000
  0
SEQEND
  8
0
  0
POLYLINE
  8
20
 66
1
 10
0.0000
 20
0.0000
 30
0.0000
 40
0.0000
 41
0.0000
 70
1
  0
VERTEX
  8
20
 10
3.2036
 20
28.7274
 30
0.0000
  0
VERTEX
  8
20
 10
3.9000
 20
28.7274
 30
0.0000
 42
1.0000
  0
VERTEX
  8
20
 10
3.9000
 20
28.8798
 30
0.0000
  0
VERTEX
  8
20
 10
3.2036
 20
28.8798
 30
0.0000
 42
1.0000
  0
SEQEND
  8
0
  0
POLYLINE
  8
20
 66
1
 10
0.0000
 20
0.0000
 30
0.0000
 40
0.0000
 41
0.0000
 70
1
  0
VERTEX
  8
20
 10
3.3560
 20
28.8798
 30
0.0000
  0
VERTEX
  8
20
 10
3.9000
 20
28.8798
 30
0.0000
 42
1.0000
  0
VERTEX
  8
20
 10
3.9000
 20
29.0322
 30
0.0000
  0
VERTEX
  8
20
 10
3.3560
 20
29.0322
 30
0.0000
 42
1.0000
  0
SEQEND
  8
0
  0
POLYLINE
  8
20
 66
1
 10
0.0000
 20
0.0000
 30
0.0000
 40
0.0000
 41
0.0000
 70
1
  0
VERTEX
  8
20
 10
3.5084
 20
29.0322
 30
0.0000
  0
VERTEX
  8
20
 10
3.9000
 20
29.0322
 30
0.0000
 42
1.0000
  0
VERTEX
  8
20
 10
3.9000
 20
29.1846
 30
0.0000
  0
VERTEX
  8
20
 10
3.5084
 20
29.1846
 30
0.0000
 42
1.0000
  0
SEQEND
  8
0
  0
POLYLINE
  8
20
 66
1
 10
0.0000
 20
0.0000
 30
0.0000
 40
0.0000
 41
0.0000
 70
1
  0
VERTEX
  8
20
 10
3.6608
 20
29.1846
 30
0.0000
  0
VERTEX
  8
20
 10
3.9000
 20
29.1846
 30
0.0000
 42
1.0000
  0
VERTEX
  8
20
 10
3.9000
 20
29.3370
 30
0.0000
  0
VERTEX
  8
20
 10
3.6608
 20
29.3370
 30
0.0000
 42
1.0000
  0
SEQEND
  8
0
  0
POLYLINE
  8
20
 66
1
 10
0.0000
 20
0.0000
 30
0.0000
 40
0.0000
 41
0.0000
 70
1
  0
VERTEX
  8
20
 10
3.8132
 20
29.3370
 30
0.0000
  0
VERTEX
  8
20
 10
3.9000
 20
29.3370
 30
0.0000
 42
1.0000
  0
VERTEX
  8
20
 10
3.9000
 20
29.4894
 30
0.0000
  0
VERTEX
  8
20
 10
3.8132
 20
29.4894
 30
0.0000
 42
1.0000
  0
SEQEND
  8
0
  0
POLYLINE
  8
20
 66
1
 10
0.0000
 20
0.0000
 30
0.0000
 40
0.0000
 41
0.0000
 70
1
  0
VERTEX
  8
20
 10
38.3762
 20
12.7000
 30
0.0000
  0
VERTEX
  8
20
 10
38.3762
 20
27.3000
 30
0.0000
 42
1.0000
  0
VERTEX
  8
20
 10
38.2238
 20
27.3000
 30
0.0000
  0
VERTEX
  8
20
 10
38.2238
 20
12.7000
 30
0.0000
 42
1.0000
  0
SEQEND
  8
0
  0
POLYLINE
  8
20
 66
1
 10
0.0000
 20
0.0000
 30
0.0000
 40
0.0000
 41
0.0000
 70
1
  0
VERTEX
  8
20
 10
38.3539
 20
27.3539
 30
0.0000
  0
VERTEX
  8
20
 10
36.1539
 20
29.5539
 30
0.0000
 42
1.0000
  0
VERTEX
  8
20
 10
36.0461
 20
29.4461
 30
0.0000
  0
VERTEX
  8
20
 10
38.2461
 20
27.2461
 30
0.0000
 42
1.0000
  0
SEQEND
  8
0
  0
POLYLINE
  8
20
 66
1
 10
0.0000
 20
0.0000
 30
0.0000
 40
0.0000
 41
0.0000
 70
1
  0
VERTEX
  8
20
 10
36.0238
 20
29.5000
 30
0.0000
  0
VERTEX
  8
20
 10
36.0238
 20
10.5000
 30
0.0000
 42
1.0000
  0
VERTEX
  8
20
 10
36.1762
 20
10.5000
 30
0.0000
  0
VERTEX
  8
20
 10
36.1762
 20
29.5000
 30
0.0000
 42
1.0000
  0
SEQEND
  8
0
  0
POLYLINE
  8
20
 66
1
 10
0.0000
 20
0.0000
 30
0.0000
 40
0.0000
 41
0.0000
 70
1
  0
VERTEX
  8
20
 10
36.1539
 20
10.4461
 30
0.0000
  0
VERTEX
  8
20
 10
38.3539
 20
12.6461
 30
0.0000
 42
1.0000
  0
VERTEX
  8
20
 10
38.2461
 20
12.7539
 30
0.0000
  0
VERTEX
  8
20
 10
36.0461
 20
10.5539
 30
0.0000
 42
1.0000
  0
SEQEND
  8
0
  0
POLYLINE
  8
20
 66
1
 10
0.0000
 20
0.0000
 30
0.0000
 40
0.0000
 41
0.0000
 70
1
  0
VERTEX
  8
20
 10
36.1000
 20
10.4394
 30
0.0000
  0
VERTEX
  8
20
 10
36.1156
 20
10.4394
 30
0.0000
 42
1.0000
  0
VERTEX
  8
20
 10
36.1156
 20
10.5918
 30
0.0000
  0
VERTEX
  8
20
 10
36.1000
 20
10.5918
 30
0.0000
 42
1.0000
  0
SEQEND
  8
0
  0
POLYLINE
  8
20
 66
1
 10
0.0000
 20
0.0000
 30
0.0000
 40
0.0000
 41
0.0000
 70
1
  0
VERTEX
  8
20
 10
36.1000
 20
10.5918
 30
0.0000
  0
VERTEX
  8
20
 10
36.2680
 20
10.5918
 30
0.0000
 42
1.0000
  0
VERTEX
  8
20
 10
36.2680
 20
10.7442
 30
0.0000
  0
VERTEX
  8
20
 10
36.1000
 20
10.7442
 30
0.0000
 42
1.0000
  0
SEQEND
  8
0
  0
POLYLINE
  8
20
 66
1
 10
0.0000
 20
0.0000
 30
0.0000
 40
0.0000
 41
0.0000
 70
1
  0
VERTEX
  8
20
 10
36.1000
 20
10.7442
 30
0.0000
  0
VERTEX
  8
20
 10
36.4204
 20
10.7442
 30
0.0000
 42
1.0000
  0
VERTEX
  8
20
 10
36.4204
 20
10.8966
 30
0.0000
  0
VERTEX
  8
20
 10
36.1000
 20
10.8966
 30
0.0000
 42
1.0000
  0
SEQEND
  8
0
  0
POLYLINE
  8
20
 66
1
 10
0.0000
 20
0.0000
 30
0.0000
 40
0.0000
 41
0.0000
 70
1
  0
VERTEX
  8
20
 10
36.1000
 20
10.8966
 30
0.0000
  0
VERTEX
  8
20
 10
36.5728
 20
10.8966
 30
0.0000
 42
1.0000
  0
VERTEX
  8
20
 10
36.5728
 20
11.0490
 30
0.0000
  0
VERTEX
  8
20
 10
36.1000
 20
11.0490
 30
0.0000
 42
1.0000
  0
SEQEND
  8
0
  0
POLYLINE
  8
20
 66
1
 10
0.0000
 20
0.0000
 30
0.0000
 40
0.0000
 41
0.0000
 70
1
  0
VERTEX
  8
20
 10
36.1000
 20
11.0490
 30
0.0000
  0
VERTEX
  8
20
 10
36.7252
 20
11.0490
 30
0.0000
 42
1.0000
  0
VERTEX
  8
20
 10
36.7252
 20
11.2014
 30
0.0000
  0
VERTEX
  8
20
 10
36.1000
 20
11.2014
 30
0.0000
 42
1.0000
  0
SEQEND
  8
0
  0
POLYLINE
  8
20
 66
1
 10
0.0000
 20
0.0000
 30
0.0000
 40
0.0000
 41
0.0000
 70
1
  0
VERTEX
  8
20
 10
36.1000
 20
11.2014
 30
0.0000
  0
VERTEX
  8
20
 10
36.8776
 20
11.2014
 30
0.0000
 42
1.0000
  0
VERTEX
  8
20
 10
36.8776
 20
11.3538
 30
0.0000
  0
VERTEX
  8
20
 10
36.1000
 20
11.3538
 30
0.0000
 42
1.0000
  0
SEQEND
  8
0
  0
POLYLINE
  8
20
 66
1
 10
0.0000
 20
0.0000
 30
0.0000
 40
0.0000
 41
0.0000
 70
1
  0
VERTEX
  8
20
 10
36.1000
 20
11.3538
 30
0.0000
  0
VERTEX
  8
20
 10
37.0300
 20
11.3538
 30
0.0000
 42
1.0000
  0
VERTEX
  8
20
 10
37.0300
 20
11.5062
 30
0.0000
  0
VERTEX
  8
20
 10
36.1000
 20
11.5062
 30
0.0000
 42
1.0000
  0
SEQEND
  8
0
  0
POLYLINE
  8
20
 66
1
 10
0.0000
 20
0.0000
 30
0.0000
 40
0.0000
 41
0.0000
 70
1
  0
VERTEX
  8
20
 10
36.1000
 20
11.5062
 30
0.0000
  0
VERTEX
  8
20
 10
37.1824
 20
11.5062
 30
0.0000
 42
1.0000
  0
VERTEX
  8
20
 10
37.1824
 20
11.6586
 30
0.0000
  0
VERTEX
  8
20
 10
36.1000
 20
11.6586
 30
0.0000
 42
1.0000
  0
SEQEND
  8
0
  0
POLYLINE
  8
20
 66
1
 10
0.0000
 20
0.0000
 30
0.0000
 40
0.0000
 41
0.0000
 70
1
  0
VERTEX
  8
20
 10
36.1000
 20
11.6586
 30
0.0000
  0
VERTEX
  8
20
 10
37.3348
 20
11.6586
 30
0.0000
 42
1.0000
  0
VERTEX
  8
20
 10
37.3348
 20
11.8110
 30
0.0000
  0
VERTEX
  8
20
 10
36.1000
 20
11.8110
 30
0.0000
 42
1.0000
  0
SEQEND
  8
0
  0
POLYLINE
  8
20
 66
1
 10
0.0000
 20
0.0000
 30
0.0000
 40
0.0000
 41
0.0000
 70
1
  0
VERTEX
  8
20
 10
36.1000
 20
11.8110
 30
0.0000
  0
VERTEX
  8
20
 10
37.4872
 20
11.8110
 30
0.0000
 42
1.0000
  0
VERTEX
  8
20
 10
37.4872
 20
11.9634
 30
0.0000
  0
VERTEX
  8
20
 10
36.1000
 20
11.9634
 30
0.0000
 42
1.0000
  0
SEQEND
  8
0
  0
POLYLINE
  8
20
 66
1
 10
0.0000
 20
0.0000
 30
0.0000
 40
0.0000
 41
0.0000
 70
1
  0
VERTEX
  8
20
 10
36.1000
 20
11.9634
 30
0.0000
  0
VERTEX
  8
20
 10
37.6396
 20
11.9634
 30
0.0000
 42
1.0000
  0
VERTEX
  8
20
 10
37.6396
 20
12.1158
 30
0.0000
  0
VERTEX
  8
20
 10
36.1000
 20
12.1158
 30
0.0000
 42
1.0000
  0
SEQEND
  8
0
  0
POLYLINE
  8
20
 66
1
 10
0.0000
 20
0.0000
 30
0.0000
 40
0.0000
 41
0.0000
 70
1
  0
VERTEX
  8
20
 10
36.1000
 20
12.1158
 30
0.0000
  0
VERTEX
  8
20
 10
37.7920
 20
12.1158
 30
0.0000
 42
1.0000
  0
VERTEX
  8
20
 10
37.7920
 20
12.2682
 30
0.0000
  0
VERTEX
  8
20
 10
36.1000
 20
12.2682
 30
0.0000
 42
1.0000
  0
SEQEND
  8
0
  0
POLYLINE
  8
20
 66
1
 10
0.0000
 20
0.0000
 30
0.0000
 40
0.0000
 41
0.0000
 70
1
  0
VERTEX
  8
20
 10
36.1000
 20
12.2682
 30
0.0000
  0
VERTEX
  8
20
 10
37.9444
 20
12.2682
 30
0.0000
 42
1.0000
  0
VERTEX
  8
20
 10
37.9444
 20
12.4206
 30
0.0000
  0
VERTEX
  8
20
 10
36.1000
 20
12.4206
 30
0.0000
 42
1.0000
  0
SEQEND
  8
0
  0
POLYLINE
  8
20
 66
1
 10
0.0000
 20
0.0000
 30
0.0000
 40
0.0000
 41
0.0000
 70
1
  0
VERTEX
  8
20
 10
36.1000
 20
12.4206
 30
0.0000
  0
VERTEX
  8
20
 10
38.0968
 20
12.4206
 30
0.0000
 42
1.0000
  0
VERTEX
  8
20
 10
38.0968
 20
12.5730
 30
0.0000
  0
VERTEX
  8
20
 10
36.1000
 20
12.5730
 30
0.0000
 42
1.0000
  0
SEQEND
  8
0
  0
POLYLINE
  8
20
 66
1
 10
0.0000
 20
0.0000
 30
0.0000
 40
0.0000
 41
0.0000
 70
1
  0
VERTEX
  8
20
 10
36.1000
 20
12.5730
 30
0.0000
  0
VERTEX
  8
20
 10
38.2492
 20
12.5730
 30
0.0000
 42
1.0000
  0
VERTEX
  8
20
 10
38.2492
 20
12.7254
 30
0.0000
  0
VERTEX
  8
20
 10
36.1000
 20
12.7254
 30
0.0000
 42
1.0000
  0
SEQEND
  8
0
  0
POLYLINE
  8
20
 66
1
 10
0.0000
 20
0.0000
 30
0.0000
 40
0.0000
 41
0.0000
 70
1
  0
VERTEX
  8
20
 10
36.1000
 20
12.7254
 30
0.0000
  0
VERTEX
  8
20
 10
38.3000
 20
12.7254
 30
0.0000
 42
1.0000
  0
VERTEX
  8
20
 10
38.3000
 20
12.8778
 30
0.0000
  0
VERTEX
  8
20
 10
36.1000
 20
12.8778
 30
0.0000
 42
1.0000
  0
SEQEND
  8
0
  0
POLYLINE
  8
20
 66
1
 10
0.0000
 20
0.0000
 30
0.0000
 40
0.0000
 41
0.0000
 70
1
  0
VERTEX
  8
20
 10
36.1000
 20
12.8778
 30
0.0000
  0
VERTEX
  8
20
 10
38.3000
 20
12.8778
 30
0.0000
 42
1.0000
  0
VERTEX
  8
20
 10
38.3000
 20
13.0302
 30
0.0000
  0
VERTEX
  8
20
 10
36.1000
 20
13.0302
 30
0.0000
 42
1.0000
  0
SEQEND
  8
0
  0
POLYLINE
  8
20
 66
1
 10
0.0000
 20
0.0000
 30
0.0000
 40
0.0000
 41
0.0000
 70
1
  0
VERTEX
  8
20
 10
36.1000
 20
13.0302
 30
0.0000
  0
VERTEX
  8
20
 10
38.3000
 20
13.0302
 30
0.0000
 42
1.0000
  0
VERTEX
  8
20
 10
38.3000
 20
13.1826
 30
0.0000
  0
VERTEX
  8
20
 10
36.1000
 20
13.1826
 30
0.0000
 42
1.0000
  0
SEQEND
  8
0
  0
POLYLINE
  8
20
 66
1
 10
0.0000
 20
0.0000
 30
0.0000
 40
0.0000
 41
0.0000
 70
1
  0
VERTEX
  8
20
 10
36.1000
 20
13.1826
 30
0.0000
  0
VERTEX
  8
20
 10
38.3000
 20
13.1826
 30
0.0000
 42
1.0000
  0
VERTEX
  8
20
 10
38.3000
 20
13.3350
 30
0.0000
  0
VERTEX
  8
20
 10
36.1000
 20
13.3350
 30
0.0000
 42
1.0000
  0
SEQEND
  8
0
  0
POLYLINE
  8
20
 66
1
 10
0.0000
 20
0.0000
 30
0.0000
 40
0.0000
 41
0.0000
 70
1
  0
VERTEX
  8
20
 10
36.1000
 20
13.3350
 30
0.0000
  0
VERTEX
  8
20
 10
38.3000
 20
13.3350
 30
0.0000
 42
1.0000
  0
VERTEX
  8
20
 10
38.3000
 20
13.4874
 30
0.0000
  0
VERTEX
  8
20
 10
36.1000
 20
13.4874
 30
0.0000
 42
1.0000
  0
SEQEND
  8
0
  0
POLYLINE
  8
20
 66
1
 10
0.0000
 20
0.0000
 30
0.0000
 40
0.0000
 41
0.0000
 70
1
  0
VERTEX
  8
20
 10
36.1000
 20
13.4874
 30
0.0000
  0
VERTEX
  8
20
 10
38.3000
 20
13.4874
 30
0.0000
 42
1.0000
  0
VERTEX
  8
20
 10
38.3000
 20
13.6398
 30
0.0000
  0
VERTEX
  8
20
 10
36.1000
 20
13.6398
 30
0.0000
 42
1.0000
  0
SEQEND
  8
0
  0
POLYLINE
  8
20
 66
1
 10
0.0000
 20
0.0000
 30
0.0000
 40
0.0000
 41
0.0000
 70
1
  0
VERTEX
  8
20
 10
36.1000
 20
13.6398
 30
0.0000
  0
VERTEX
  8
20
 10
38.3000
 20
13.6398
 30
0.0000
 42
1.0000
  0
VERTEX
  8
20
 10
38.3000
 20
13.7922
 30
0.0000
  0
VERTEX
  8
20
 10
36.1000
 20
13.7922
 30
0.0000
 42
1.0000
  0
SEQEND
  8
0
  0
POLYLINE
  8
20
 66
1
 10
0.0000
 20
0.0000
 30
0.0000
 40
0.0000
 41
0.0000
 70
1
  0
VERTEX
  8
20
 10
36.1000
 20
13.7922
 30
0.0000
  0
VERTEX
  8
20
 10
38.3000
 20
13.7922
 30
0.0000
 42
1.0000
  0
VERTEX
  8
20
 10
38.3000
 20
13.9446
 30
0.0000
  0
VERTEX
  8
20
 10
36.1000
 20
13.9446
 30
0.0000
 42
1.0000
  0
SEQEND
  8
0
  0
POLYLINE
  8
20
 66
1
 10
0.0000
 20
0.0000
 30
0.0000
 40
0.0000
 41
0.0000
 70
1
  0
VERTEX
  8
20
 10
36.1000
 20
13.9446
 30
0.0000
  0
VERTEX
  8
20
 10
38.3000
 20
13.9446
 30
0.0000
 42
1.0000
  0
VERTEX
  8
20
 10
38.3000
 20
14.0970
 30
0.0000
  0
VERTEX
  8
20
 10
36.1000
 20
14.0970
 30
0.0000
 42
1.0000
  0
SEQEND
  8
0
  0
POLYLINE
  8
20
 66
1
 10
0.0000
 20
0.0000
 30
0.0000
 40
0.0000
 41
0.0000
 70
1
  0
VERTEX
  8
20
 10
36.1000
 20
14.0970
 30
0.0000
  0
VERTEX
  8
20
 10
38.3000
 20
14.0970
 30
0.0000
 42
1.0000
  0
VERTEX
  8
20
 10
38.3000
 20
14.2494
 30
0.0000
  0
VERTEX
  8
20
 10
36.1000
 20
14.2494
 30
0.0000
 42
1.0000
  0
SEQEND
  8
0
  0
POLYLINE
  8
20
 66
1
 10
0.0000
 20
0.0000
 30
0.0000
 40
0.0000
 41
0.0000
 70
1
  0
VERTEX
  8
20
 10
36.1000
 20
14.2494
 30
0.0000
  0
VERTEX
  8
20
 10
38.3000
 20
14.2494
 30
0.0000
 42
1.0000
  0
VERTEX
  8
20
 10
38.3000
 20
14.4018
 30
0.0000
  0
VERTEX
  8
20
 10
36.1000
 20
14.4018
 30
0.0000
 42
1.0000
  0
SEQEND
  8
0
  0
POLYLINE
  8
20
 66
1
 10
0.0000
 20
0.0000
 30
0.0000
 40
0.0000
 41
0.0000
 70
1
  0
VERTEX
  8
20
 10
36.1000
 20
14.4018
 30
0.0000
  0
VERTEX
  8
20
 10
38.3000
 20
14.4018
 30
0.0000
 42
1.0000
  0
VERTEX
  8
20
 10
38.3000
 20
14.5542
 30
0.0000
  0
VERTEX
  8
20
 10
36.1000
 20
14.5542
 30
0.0000
 42
1.0000
  0
SEQEND
  8
0
  0
POLYLINE
  8
20
 66
1
 10
0.0000
 20
0.0000
 30
0.0000
 40
0.0000
 41
0.0000
 70
1
  0
VERTEX
  8
20
 10
36.1000
 20
14.5542
 30
0.0000
  0
VERTEX
  8
20
 10
38.3000
 20
14.5542
 30
0.0000
 42
1.0000
  0
VERTEX
  8
20
 10
38.3000
 20
14.7066
 30
0.0000
  0
VERTEX
  8
20
 10
36.1000
 20
14.7066
 30
0.0000
 42
1.0000
  0
SEQEND
  8
0
  0
POLYLINE
  8
20
 66
1
 10
0.0000
 20
0.0000
 30
0.0000
 40
0.0000
 41
0.0000
 70
1
  0
VERTEX
  8
20
 10
36.1000
 20
14.7066
 30
0.0000
  0
VERTEX
  8
20
 10
38.3000
 20
14.7066
 30
0.0000
 42
1.0000
  0
VERTEX
  8
20
 10
38.3000
 20
14.8590
 30
0.0000
  0
VERTEX
  8
20
 10
36.1000
 20
14.8590
 30
0.0000
 42
1.0000
  0
SEQEND
  8
0
  0
POLYLINE
  8
20
 66
1
 10
0.0000
 20
0.0000
 30
0.0000
 40
0.0000
 41
0.0000
 70
1
  0
VERTEX
  8
20
 10
36.1000
 20
14.8590
 30
0.0000
  0
VERTEX
  8
20
 10
38.3000
 20
14.8590
 30
0.0000
 42
1.0000
  0
VERTEX
  8
20
 10
38.3000
 20
15.0114
 30
0.0000
  0
VERTEX
  8
20
 10
36.1000
 20
15.0114
 30
0.0000
 42
1.0000
  0
SEQEND
  8
0
  0
POLYLINE
  8
20
 66
1
 10
0.0000
 20
0.0000
 30
0.0000
 40
0.0000
 41
0.0000
 70
1
  0
VERTEX
  8
20
 10
36.1000
 20
15.0114
 30
0.0000
  0
VERTEX
  8
20
 10
38.3000
 20
15.0114
 30
0.0000
 42
1.0000
  0
VERTEX
  8
20
 10
38.3000
 20
15.1638
 30
0.0000
  0
VERTEX
  8
20
 10
36.1000
 20
15.1638
 30
0.0000
 42
1.0000
  0
SEQEND
  8
0
  0
POLYLINE
  8
20
 66
1
 10
0.0000
 20
0.0000
 30
0.0000
 40
0.0000
 41
0.0000
 70
1
  0
VERTEX
  8
20
 10
36.1000
 20
15.1638
 30
0.0000
  0
VERTEX
  8
20
 10
38.3000
 20
15.1638
 30
0.0000
 42
1.0000
  0
VERTEX
  8
20
 10
38.3000
 20
15.3162
 30
0.0000
  0
VERTEX
  8
20
 10
36.1000
 20
15.3162
 30
0.0000
 42
1.0000
  0
SEQEND
  8
0
  0
POLYLINE
  8
20
 66
1
 10
0.0000
 20
0.0000
 30
0.0000
 40
0.0000
 41
0.0000
 70
1
  0
VERTEX
  8
20
 10
36.1000
 20
15.3162
 30
0.0000
  0
VERTEX
  8
20
 10
38.3000
 20
15.3162
 30
0.0000
 42
1.0000
  0
VERTEX
  8
20
 10
38.3000
 20
15.4686
 30
0.0000
  0
VERTEX
  8
20
 10
36.1000
 20
15.4686
 30
0.0000
 42
1.0000
  0
SEQEND
  8
0
  0
POLYLINE
  8
20
 66
1
 10
0.0000
 20
0.0000
 30
0.0000
 40
0.0000
 41
0.0000
 70
1
  0
VERTEX
  8
20
 10
36.1000
 20
15.4686
 30
0.0000
  0
VERTEX
  8
20
 10
38.3000
 20
15.4686
 30
0.0000
 42
1.0000
  0
VERTEX
  8
20
 10
38.3000
 20
15.6210
 30
0.0000
  0
VERTEX
  8
20
 10
36.1000
 20
15.6210
 30
0.0000
 42
1.0000
  0
SEQEND
  8
0
  0
POLYLINE
  8
20
 66
1
 10
0.0000
 20
0.0000
 30
0.0000
 40
0.0000
 41
0.0000
 70
1
  0
VERTEX
  8
20
 10
36.1000
 20
15.6210
 30
0.0000
  0
VERTEX
  8
20
 10
38.3000
 20
15.6210
 30
0.0000
 42
1.0000
  0
VERTEX
  8
20
 10
38.3000
 20
15.7734
 30
0.0000
  0
VERTEX
  8
20
 10
36.1000
 20
15.7734
 30
0.0000
 42
1.0000
  0
SEQEND
  8
0
  0
POLYLINE
  8
20
 66
1
 10
0.0000
 20
0.0000
 30
0.0000
 40
0.0000
 41
0.0000
 70
1
  0
VERTEX
  8
20
 10
36.1000
 20
15.7734
 30
0.0000
  0
VERTEX
  8
20
 10
38.3000
 20
15.7734
 30
0.0000
 42
1.0000
  0
VERTEX
  8
20
 10
38.3000
 20
15.9258
 30
0.0000
  0
VERTEX
  8
20
 10
36.1000
 20
15.9258
 30
0.0000
 42
1.0000
  0
SEQEND
  8
0
  0
POLYLINE
  8
20
 66
1
 10
0.0000
 20
0.0000
 30
0.0000
 40
0.0000
 41
0.0000
 70
1
  0
VERTEX
  8
20
 10
36.1000
 20
15.9258
 30
0.0000
  0
VERTEX
  8
20
 10
38.3000
 20
15.9258
 30
0.0000
 42
1.0000
  0
VERTEX
  8
20
 10
38.3000
 20
16.0782
 30
0.0000
  0
VERTEX
  8
20
 10
36.1000
 20
16.0782
 30
0.0000
 42
1.0000
  0
SEQEND
  8
0
  0
POLYLINE
  8
20
 66
1
 10
0.0000
 20
0.0000
 30
0.0000
 40
0.0000
 41
0.0000
 70
1
  0
VERTEX
  8
20
 10
36.1000
 20
16.0782
 30
0.0000
  0
VERTEX
  8
20
 10
38.3000
 20
16.0782
 30
0.0000
 42
1.0000
  0
VERTEX
  8
20
 10
38.3000
 20
16.2306
 30
0.0000
  0
VERTEX
  8
20
 10
36.1000
 20
16.2306
 30
0.0000
 42
1.0000
  0
SEQEND
  8
0
  0
POLYLINE
  8
20
 66
1
 10
0.0000
 20
0.0000
 30
0.0000
 40
0.0000
 41
0.0000
 70
1
  0
VERTEX
  8
20
 10
36.1000
 20
16.2306
 30
0.0000
  0
VERTEX
  8
20
 10
38.3000
 20
16.2306
 30
0.0000
 42
1.0000
  0
VERTEX
  8
20
 10
38.3000
 20
16.3830
 30
0.0000
  0
VERTEX
  8
20
 10
36.1000
 20
16.3830
 30
0.0000
 42
1.0000
  0
SEQEND
  8
0
  0
POLYLINE
  8
20
 66
1
 10
0.0000
 20
0.0000
 30
0.0000
 40
0.0000
 41
0.0000
 70
1
  0
VERTEX
  8
20
 10
36.1000
 20
16.3830
 30
0.0000
  0
VERTEX
  8
20
 10
38.3000
 20
16.3830
 30
0.0000
 42
1.0000
  0
VERTEX
  8
20
 10
38.3000
 20
16.5354
 30
0.0000
  0
VERTEX
  8
20
 10
36.1000
 20
16.5354
 30
0.0000
 42
1.0000
  0
SEQEND
  8
0
  0
POLYLINE
  8
20
 66
1
 10
0.0000
 20
0.0000
 30
0.0000
 40
0.0000
 41
0.0000
 70
1
  0
VERTEX
  8
20
 10
36.1000
 20
16.5354
 30
0.0000
  0
VERTEX
  8
20
 10
38.3000
 20
16.5354
 30
0.0000
 42
1.0000
  0
VERTEX
  8
20
 10
38.3000
 20
16.6878
 30
0.0000
  0
VERTEX
  8
20
 10
36.1000
 20
16.6878
 30
0.0000
 42
1.0000
  0
SEQEND
  8
0
  0
POLYLINE
  8
20
 66
1
 10
0.0000
 20
0.0000
 30
0.0000
 40
0.0000
 41
0.0000
 70
1
  0
VERTEX
  8
20
 10
36.1000
 20
16.6878
 30
0.0000
  0
VERTEX
  8
20
 10
38.3000
 20
16.6878
 30
0.0000
 42
1.0000
  0
VERTEX
  8
20
 10
38.3000
 20
16.8402
 30
0.0000
  0
VERTEX
  8
20
 10
36.1000
 20
16.8402
 30
0.0000
 42
1.0000
  0
SEQEND
  8
0
  0
POLYLINE
  8
20
 66
1
 10
0.0000
 20
0.0000
 30
0.0000
 40
0.0000
 41
0.0000
 70
1
  0
VERTEX
  8
20
 10
36.1000
 20
16.8402
 30
0.0000
  0
VERTEX
  8
20
 10
38.3000
 20
16.8402
 30
0.0000
 42
1.0000
  0
VERTEX
  8
20
 10
38.3000
 20
16.9926
 30
0.0000
  0
VERTEX
  8
20
 10
36.1000
 20
16.9926
 30
0.0000
 42
1.0000
  0
SEQEND
  8
0
  0
POLYLINE
  8
20
 66
1
 10
0.0000
 20
0.0000
 30
0.0000
 40
0.0000
 41
0.0000
 70
1
  0
VERTEX
  8
20
 10
36.1000
 20
16.9926
 30
0.0000
  0
VERTEX
  8
20
 10
38.3000
 20
16.9926
 30
0.0000
 42
1.0000
  0
VERTEX
  8
20
 10
38.3000
 20
17.1450
 30
0.0000
  0
VERTEX
  8
20
 10
36.1000
 20
17.1450
 30
0.0000
 42
1.0000
  0
SEQEND
  8
0
  0
POLYLINE
  8
20
 66
1
 10
0.0000
 20
0.0000
 30
0.0000
 40
0.0000
 41
0.0000
 70
1
  0
VERTEX
  8
20
 10
36.1000
 20
17.1450
 30
0.0000
  0
VERTEX
  8
20
 10
38.3000
 20
17.1450
 30
0.0000
 42
1.0000
  0
VERTEX
  8
20
 10
38.3000
 20
17.2974
 30
0.0000
  0
VERTEX
  8
20
 10
36.1000
 20
17.2974
 30
0.0000
 42
1.0000
  0
SEQEND
  8
0
  0
POLYLINE
  8
20
 66
1
 10
0.0000
 20
0.0000
 30
0.0000
 40
0.0000
 41
0.0000
 70
1
  0
VERTEX
  8
20
 10
36.1000
 20
17.2974
 30
0.0000
  0
VERTEX
  8
20
 10
38.3000
 20
17.2974
 30
0.0000
 42
1.0000
  0
VERTEX
  8
20
 10
38.3000
 20
17.4498
 30
0.0000
  0
VERTEX
  8
20
 10
36.1000
 20
17.4498
 30
0.0000
 42
1.0000
  0
SEQEND
  8
0
  0
POLYLINE
  8
20
 66
1
 10
0.0000
 20
0.0000
 30
0.0000
 40
0.0000
 41
0.0000
 70
1
  0
VERTEX
  8
20
 10
36.1000
 20
17.4498
 30
0.0000
  0
VERTEX
  8
20
 10
38.3000
 20
17.4498
 30
0.0000
 42
1.0000
  0
VERTEX
  8
20
 10
38.3000
 20
17.6022
 30
0.0000
  0
VERTEX
  8
20
 10
36.1000
 20
17.6022
 30
0.0000
 42
1.0000
  0
SEQEND
  8
0
  0
POLYLINE
  8
20
 66
1
 10
0.0000
 20
0.0000
 30
0.0000
 40
0.0000
 41
0.0000
 70
1
  0
VERTEX
  8
20
 10
36.1000
 20
17.6022
 30
0.0000
  0
VERTEX
  8
20
 10
38.3000
 20
17.6022
 30
0.0000
 42
1.0000
  0
VERTEX
  8
20
 10
38.3000
 20
17.7546
 30
0.0000
  0
VERTEX
  8
20
 10
36.1000
 20
17.7546
 30
0.0000
 42
1.0000
  0
SEQEND
  8
0
  0
POLYLINE
  8
20
 66
1
 10
0.0000
 20
0.0000
 30
0.0000
 40
0.0000
 41
0.0000
 70
1
  0
VERTEX
  8
20
 10
36.1000
 20
17.7546
 30
0.0000
  0
VERTEX
  8
20
 10
38.3000
 20
17.7546
 30
0.0000
 42
1.0000
  0
VERTEX
  8
20
 10
38.3000
 20
17.9070
 30
0.0000
  0
VERTEX
  8
20
 10
36.1000
 20
17.9070
 30
0.0000
 42
1.0000
  0
SEQEND
  8
0
  0
POLYLINE
  8
20
 66
1
 10
0.0000
 20
0.0000
 30
0.0000
 40
0.0000
 41
0.0000
 70
1
  0
VERTEX
  8
20
 10
36.1000
 20
17.9070
 30
0.0000
  0
VERTEX
  8
20
 10
38.3000
 20
17.9070
 30
0.0000
 42
1.0000
  0
VERTEX
  8
20
 10
38.3000
 20
18.0594
 30
0.0000
  0
VERTEX
  8
20
 10
36.1000
 20
18.0594
 30
0.0000
 42
1.0000
  0
SEQEND
  8
0
  0
POLYLINE
  8
20
 66
1
 10
0.0000
 20
0.0000
 30
0.0000
 40
0.0000
 41
0.0000
 70
1
  0
VERTEX
  8
20
 10
36.1000
 20
18.0594
 30
0.0000
  0
VERTEX
  8
20
 10
38.3000
 20
18.0594
 30
0.0000
 42
1.0000
  0
VERTEX
  8
20
 10
38.3000
 20
18.2118
 30
0.0000
  0
VERTEX
  8
20
 10
36.1000
 20
18.2118
 30
0.0000
 42
1.0000
  0
SEQEND
  8
0
  0
POLYLINE
  8
20
 66
1
 10
0.0000
 20
0.0000
 30
0.0000
 40
0.0000
 41
0.0000
 70
1
  0
VERTEX
  8
20
 10
36.1000
 20
18.2118
 30
0.0000
  0
VERTEX
  8
20
 10
38.3000
 20
18.2118
 30
0.0000
 42
1.0000
  0
VERTEX
  8
20
 10
38.3000
 20
18.3642
 30
0.0000
  0
VERTEX
  8
20
 10
36.1000
 20
18.3642
 30
0.0000
 42
1.0000
  0
SEQEND
  8
0
  0
POLYLINE
  8
20
 66
1
 10
0.0000
 20
0.0000
 30
0.0000
 40
0.0000
 41
0.0000
 70
1
  0
VERTEX
  8
20
 10
36.1000
 20
18.3642
 30
0.0000
  0
VERTEX
  8
20
 10
38.3000
 20
18.3642
 30
0.0000
 42
1.0000
  0
VERTEX
  8
20
 10
38.3000
 20
18.5166
 30
0.0000
  0
VERTEX
  8
20
 10
36.1000
 20
18.5166
 30
0.0000
 42
1.0000
  0
SEQEND
  8
0
  0
POLYLINE
  8
20
 66
1
 10
0.0000
 20
0.0000
 30
0.0000
 40
0.0000
 41
0.0000
 70
1
  0
VERTEX
  8
20
 10
36.1000
 20
18.5166
 30
0.0000
  0
VERTEX
  8
20
 10
38.3000
 20
18.5166
 30
0.0000
 42
1.0000
  0
VERTEX
  8
20
 10
38.3000
 20
18.6690
 30
0.0000
  0
VERTEX
  8
20
 10
36.1000
 20
18.6690
 30
0.0000
 42
1.0000
  0
SEQEND
  8
0
  0
POLYLINE
  8
20
 66
1
 10
0.0000
 20
0.0000
 30
0.0000
 40
0.0000
 41
0.0000
 70
1
  0
VERTEX
  8
20
 10
36.1000
 20
18.6690
 30
0.0000
  0
VERTEX
  8
20
 10
38.3000
 20
18.6690
 30
0.0000
 42
1.0000
  0
VERTEX
  8
20
 10
38.3000
 20
18.8214
 30
0.0000
  0
VERTEX
  8
20
 10
36.1000
 20
18.8214
 30
0.0000
 42
1.0000
  0
SEQEND
  8
0
  0
POLYLINE
  8
20
 66
1
 10
0.0000
 20
0.0000
 30
0.0000
 40
0.0000
 41
0.0000
 70
1
  0
VERTEX
  8
20
 10
36.1000
 20
18.8214
 30
0.0000
  0
VERTEX
  8
20
 10
38.3000
 20
18.8214
 30
0.0000
 42
1.0000
  0
VERTEX
  8
20
 10
38.3000
 20
18.9738
 30
0.0000
  0
VERTEX
  8
20
 10
36.1000
 20
18.9738
 30
0.0000
 42
1.0000
  0
SEQEND
  8
0
  0
POLYLINE
  8
20
 66
1
 10
0.0000
 20
0.0000
 30
0.0000
 40
0.0000
 41
0.0000
 70
1
  0
VERTEX
  8
20
 10
36.1000
 20
18.9738
 30
0.0000
  0
VERTEX
  8
20
 10
38.3000
 20
18.9738
 30
0.0000
 42
1.0000
  0
VERTEX
  8
20
 10
38.3000
 20
19.1262
 30
0.0000
  0
VERTEX
  8
20
 10
36.1000
 20
19.1262
 30
0.0000
 42
1.0000
  0
SEQEND
  8
0
  0
POLYLINE
  8
20
 66
1
 10
0.0000
 20
0.0000
 30
0.0000
 40
0.0000
 41
0.0000
 70
1
  0
VERTEX
  8
20
 10
36.1000
 20
19.1262
 30
0.0000
  0
VERTEX
  8
20
 10
38.3000
 20
19.1262
 30
0.0000
 42
1.0000
  0
VERTEX
  8
20
 10
38.3000
 20
19.2786
 30
0.0000
  0
VERTEX
  8
20
 10
36.1000
 20
19.2786
 30
0.0000
 42
1.0000
  0
SEQEND
  8
0
  0
POLYLINE
  8
20
 66
1
 10
0.0000
 20
0.0000
 30
0.0000
 40
0.0000
 41
0.0000
 70
1
  0
VERTEX
  8
20
 10
36.1000
 20
19.2786
 30
0.0000
  0
VERTEX
  8
20
 10
38.3000
 20
19.2786
 30
0.0000
 42
1.0000
  0
VERTEX
  8
20
 10
38.3000
 20
19.4310
 30
0.0000
  0
VERTEX
  8
20
 10
36.1000
 20
19.4310
 30
0.0000
 42
1.0000
  0
SEQEND
  8
0
  0
POLYLINE
  8
20
 66
1
 10
0.0000
 20
0.0000
 30
0.0000
 40
0.0000
 41
0.0000
 70
1
  0
VERTEX
  8
20
 10
36.1000
 20
19.4310
 30
0.0000
  0
VERTEX
  8
20
 10
38.3000
 20
19.4310
 30
0.0000
 42
1.0000
  0
VERTEX
  8
20
 10
38.3000
 20
19.5834
 30
0.0000
  0
VERTEX
  8
20
 10
36.1000
 20
19.5834
 30
0.0000
 42
1.0000
  0
SEQEND
  8
0
  0
POLYLINE
  8
20
 66
1
 10
0.0000
 20
0.0000
 30
0.0000
 40
0.0000
 41
0.0000
 70
1
  0
VERTEX
  8
20
 10
36.1000
 20
19.5834
 30
0.0000
  0
VERTEX
  8
20
 10
38.3000
 20
19.5834
 30
0.0000
 42
1.0000
  0
VERTEX
  8
20
 10
38.3000
 20
19.7358
 30
0.0000
  0
VERTEX
  8
20
 10
36.1000
 20
19.7358
 30
0.0000
 42
1.0000
  0
SEQEND
  8
0
  0
POLYLINE
  8
20
 66
1
 10
0.0000
 20
0.0000
 30
0.0000
 40
0.0000
 41
0.0000
 70
1
  0
VERTEX
  8
20
 10
36.1000
 20
19.7358
 30
0.0000
  0
VERTEX
  8
20
 10
38.3000
 20
19.7358
 30
0.0000
 42
1.0000
  0
VERTEX
  8
20
 10
38.3000
 20
19.8882
 30
0.0000
  0
VERTEX
  8
20
 10
36.1000
 20
19.8882
 30
0.0000
 42
1.0000
  0
SEQEND
  8
0
  0
POLYLINE
  8
20
 66
1
 10
0.0000
 20
0.0000
 30
0.0000
 40
0.0000
 41
0.0000
 70
1
  0
VERTEX
  8
20
 10
36.1000
 20
19.8882
 30
0.0000
  0
VERTEX
  8
20
 10
38.3000
 20
19.8882
 30
0.0000
 42
1.0000
  0
VERTEX
  8
20
 10
38.3000
 20
20.0406
 30
0.0000
  0
VERTEX
  8
20
 10
36.1000
 20
20.0406
 30
0.0000
 42
1.0000
  0
SEQEND
  8
0
  0
POLYLINE
  8
20
 66
1
 10
0.0000
 20
0.0000
 30
0.0000
 40
0.0000
 41
0.0000
 70
1
  0
VERTEX
  8
20
 10
36.1000
 20
20.0406
 30
0.0000
  0
VERTEX
  8
20
 10
38.3000
 20
20.0406
 30
0.0000
 42
1.0000
  0
VERTEX
  8
20
 10
38.3000
 20
20.1930
 30
0.0000
  0
VERTEX
  8
20
 10
36.1000
 20
20.1930
 30
0.0000
 42
1.0000
  0
SEQEND
  8
0
  0
POLYLINE
  8
20
 66
1
 10
0.0000
 20
0.0000
 30
0.0000
 40
0.0000
 41
0.0000
 70
1
  0
VERTEX
  8
20
 10
36.1000
 20
20.1930
 30
0.0000
  0
VERTEX
  8
20
 10
38.3000
 20
20.1930
 30
0.0000
 42
1.0000
  0
VERTEX
  8
20
 10
38.3000
 20
20.3454
 30
0.0000
  0
VERTEX
  8
20
 10
36.1000
 20
20.3454
 30
0.0000
 42
1.0000
  0
SEQEND
  8
0
  0
POLYLINE
  8
20
 66
1
 10
0.0000
 20
0.0000
 30
0.0000
 40
0.0000
 41
0.0000
 70
1
  0
VERTEX
  8
20
 10
36.1000
 20
20.3454
 30
0.0000
  0
VERTEX
  8
20
 10
38.3000
 20
20.3454
 30
0.0000
 42
1.0000
  0
VERTEX
  8
20
 10
38.3000
 20
20.4978
 30
0.0000
  0
VERTEX
  8
20
 10
36.1000
 20
20.4978
 30
0.0000
 42
1.0000
  0
SEQEND
  8
0
  0
POLYLINE
  8
20
 66
1
 10
0.0000
 20
0.0000
 30
0.0000
 40
0.0000
 41
0.0000
 70
1
  0
VERTEX
  8
20
 10
36.1000
 20
20.4978
 30
0.0000
  0
VERTEX
  8
20
 10
38.3000
 20
20.4978
 30
0.0000
 42
1.0000
  0
VERTEX
  8
20
 10
38.3000
 20
20.6502
 30
0.0000
  0
VERTEX
  8
20
 10
36.1000
 20
20.6502
 30
0.0000
 42
1.0000
  0
SEQEND
  8
0
  0
POLYLINE
  8
20
 66
1
 10
0.0000
 20
0.0000
 30
0.0000
 40
0.0000
 41
0.0000
 70
1
  0
VERTEX
  8
20
 10
36.1000
 20
20.6502
 30
0.0000
  0
VERTEX
  8
20
 10
38.3000
 20
20.6502
 30
0.0000
 42
1.0000
  0
VERTEX
  8
20
 10
38.3000
 20
20.8026
 30
0.0000
  0
VERTEX
  8
20
 10
36.1000
 20
20.8026
 30
0.0000
 42
1.0000
  0
SEQEND
  8
0
  0
POLYLINE
  8
20
 66
1
 10
0.0000
 20
0.0000
 30
0.0000
 40
0.0000
 41
0.0000
 70
1
  0
VERTEX
  8
20
 10
36.1000
 20
20.8026
 30
0.0000
  0
VERTEX
  8
20
 10
38.3000
 20
20.8026
 30
0.0000
 42
1.0000
  0
VERTEX
  8
20
 10
38.3000
 20
20.9550
 30
0.0000
  0
VERTEX
  8
20
 10
36.1000
 20
20.9550
 30
0.0000
 42
1.0000
  0
SEQEND
  8
0
  0
POLYLINE
  8
20
 66
1
 10
0.0000
 20
0.0000
 30
0.0000
 40
0.0000
 41
0.0000
 70
1
  0
VERTEX
  8
20
 10
36.1000
 20
20.9550
 30
0.0000
  0
VERTEX
  8
20
 10
38.3000
 20
20.9550
 30
0.0000
 42
1.0000
  0
VERTEX
  8
20
 10
38.3000
 20
21.1074
 30
0.0000
  0
VERTEX
  8
20
 10
36.1000
 20
21.1074
 30
0.0000
 42
1.0000
  0
SEQEND
  8
0
  0
POLYLINE
  8
20
 66
1
 10
0.0000
 20
0.0000
 30
0.0000
 40
0.0000
 41
0.0000
 70
1
  0
VERTEX
  8
20
 10
36.1000
 20
21.1074
 30
0.0000
  0
VERTEX
  8
20
 10
38.3000
 20
21.1074
 30
0.0000
 42
1.0000
  0
VERTEX
  8
20
 10
38.3000
 20
21.2598
 30
0.0000
  0
VERTEX
  8
20
 10
36.1000
 20
21.2598
 30
0.0000
 42
1.0000
  0
SEQEND
  8
0
  0
POLYLINE
  8
20
 66
1
 10
0.0000
 20
0.0000
 30
0.0000
 40
0.0000
 41
0.0000
 70
1
  0
VERTEX
  8
20
 10
36.1000
 20
21.2598
 30
0.0000
  0
VERTEX
  8
20
 10
38.3000
 20
21.2598
 30
0.0000
 42
1.0000
  0
VERTEX
  8
20
 10
38.3000
 20
21.4122
 30
0.0000
  0
VERTEX
  8
20
 10
36.1000
 20
21.4122
 30
0.0000
 42
1.0000
  0
SEQEND
  8
0
  0
POLYLINE
  8
20
 66
1
 10
0.0000
 20
0.0000
 30
0.0000
 40
0.0000
 41
0.0000
 70
1
  0
VERTEX
  8
20
 10
36.1000
 20
21.4122
 30
0.0000
  0
VERTEX
  8
20
 10
38.3000
 20
21.4122
 30
0.0000
 42
1.0000
  0
VERTEX
  8
20
 10
38.3000
 20
21.5646
 30
0.0000
  0
VERTEX
  8
20
 10
36.1000
 20
21.5646
 30
0.0000
 42
1.0000
  0
SEQEND
  8
0
  0
POLYLINE
  8
20
 66
1
 10
0.0000
 20
0.0000
 30
0.0000
 40
0.0000
 41
0.0000
 70
1
  0
VERTEX
  8
20
 10
36.1000
 20
21.5646
 30
0.0000
  0
VERTEX
  8
20
 10
38.3000
 20
21.5646
 30
0.0000
 42
1.0000
  0
VERTEX
  8
20
 10
38.3000
 20
21.7170
 30
0.0000
  0
VERTEX
  8
20
 10
36.1000
 20
21.7170
 30
0.0000
 42
1.0000
  0
SEQEND
  8
0
  0
POLYLINE
  8
20
 66
1
 10
0.0000
 20
0.0000
 30
0.0000
 40
0.0000
 41
0.0000
 70
1
  0
VERTEX
  8
20
 10
36.1000
 20
21.7170
 30
0.0000
  0
VERTEX
  8
20
 10
38.3000
 20
21.7170
 30
0.0000
 42
1.0000
  0
VERTEX
  8
20
 10
38.3000
 20
21.8694
 30
0.0000
  0
VERTEX
  8
20
 10
36.1000
 20
21.8694
 30
0.0000
 42
1.0000
  0
SEQEND
  8
0
  0
POLYLINE
  8
20
 66
1
 10
0.0000
 20
0.0000
 30
0.0000
 40
0.0000
 41
0.0000
 70
1
  0
VERTEX
  8
20
 10
36.1000
 20
21.8694
 30
0.0000
  0
VERTEX
  8
20
 10
38.3000
 20
21.8694
 30
0.0000
 42
1.0000
  0
VERTEX
  8
20
 10
38.3000
 20
22.0218
 30
0.0000
  0
VERTEX
  8
20
 10
36.1000
 20
22.0218
 30
0.0000
 42
1.0000
  0
SEQEND
  8
0
  0
POLYLINE
  8
20
 66
1
 10
0.0000
 20
0.0000
 30
0.0000
 40
0.0000
 41
0.0000
 70
1
  0
VERTEX
  8
20
 10
36.1000
 20
22.0218
 30
0.0000
  0
VERTEX
  8
20
 10
38.3000
 20
22.0218
 30
0.0000
 42
1.0000
  0
VERTEX
  8
20
 10
38.3000
 20
22.1742
 30
0.0000
  0
VERTEX
  8
20
 10
36.1000
 20
22.1742
 30
0.0000
 42
1.0000
  0
SEQEND
  8
0
  0
POLYLINE
  8
20
 66
1
 10
0.0000
 20
0.0000
 30
0.0000
 40
0.0000
 41
0.0000
 70
1
  0
VERTEX
  8
20
 10
36.1000
 20
22.1742
 30
0.0000
  0
VERTEX
  8
20
 10
38.3000
 20
22.1742
 30
0.0000
 42
1.0000
  0
VERTEX
  8
20
 10
38.3000
 20
22.3266
 30
0.0000
  0
VERTEX
  8
20
 10
36.1000
 20
22.3266
 30
0.0000
 42
1.0000
  0
SEQEND
  8
0
  0
POLYLINE
  8
20
 66
1
 10
0.0000
 20
0.0000
 30
0.0000
 40
0.0000
 41
0.0000
 70
1
  0
VERTEX
  8
20
 10
36.1000
 20
22.3266
 30
0.0000
  0
VERTEX
  8
20
 10
38.3000
 20
22.3266
 30
0.0000
 42
1.0000
  0
VERTEX
  8
20
 10
38.3000
 20
22.4790
 30
0.0000
  0
VERTEX
  8
20
 10
36.1000
 20
22.4790
 30
0.0000
 42
1.0000
  0
SEQEND
  8
0
  0
POLYLINE
  8
20
 66
1
 10
0.0000
 20
0.0000
 30
0.0000
 40
0.0000
 41
0.0000
 70
1
  0
VERTEX
  8
20
 10
36.1000
 20
22.4790
 30
0.0000
  0
VERTEX
  8
20
 10
38.3000
 20
22.4790
 30
0.0000
 42
1.0000
  0
VERTEX
  8
20
 10
38.3000
 20
22.6314
 30
0.0000
  0
VERTEX
  8
20
 10
36.1000
 20
22.6314
 30
0.0000
 42
1.0000
  0
SEQEND
  8
0
  0
POLYLINE
  8
20
 66
1
 10
0.0000
 20
0.0000
 30
0.0000
 40
0.0000
 41
0.0000
 70
1
  0
VERTEX
  8
20
 10
36.1000
 20
22.6314
 30
0.0000
  0
VERTEX
  8
20
 10
38.3000
 20
22.6314
 30
0.0000
 42
1.0000
  0
VERTEX
  8
20
 10
38.3000
 20
22.7838
 30
0.0000
  0
VERTEX
  8
20
 10
36.1000
 20
22.7838
 30
0.0000
 42
1.0000
  0
SEQEND
  8
0
  0
POLYLINE
  8
20
 66
1
 10
0.0000
 20
0.0000
 30
0.0000
 40
0.0000
 41
0.0000
 70
1
  0
VERTEX
  8
20
 10
36.1000
 20
22.7838
 30
0.0000
  0
VERTEX
  8
20
 10
38.3000
 20
22.7838
 30
0.0000
 42
1.0000
  0
VERTEX
  8
20
 10
38.3000
 20
22.9362
 30
0.0000
  0
VERTEX
  8
20
 10
36.1000
 20
22.9362
 30
0.0000
 42
1.0000
  0
SEQEND
  8
0
  0
POLYLINE
  8
20
 66
1
 10
0.0000
 20
0.0000
 30
0.0000
 40
0.0000
 41
0.0000
 70
1
  0
VERTEX
  8
20
 10
36.1000
 20
22.9362
 30
0.0000
  0
VERTEX
  8
20
 10
38.3000
 20
22.9362
 30
0.0000
 42
1.0000
  0
VERTEX
  8
20
 10
38.3000
 20
23.0886
 30
0.0000
  0
VERTEX
  8
20
 10
36.1000
 20
23.0886
 30
0.0000
 42
1.0000
  0
SEQEND
  8
0
  0
POLYLINE
  8
20
 66
1
 10
0.0000
 20
0.0000
 30
0.0000
 40
0.0000
 41
0.0000
 70
1
  0
VERTEX
  8
20
 10
36.1000
 20
23.0886
 30
0.0000
  0
VERTEX
  8
20
 10
38.3000
 20
23.0886
 30
0.0000
 42
1.0000
  0
VERTEX
  8
20
 10
38.3000
 20
23.2410
 30
0.0000
  0
VERTEX
  8
20
 10
36.1000
 20
23.2410
 30
0.0000
 42
1.0000
  0
SEQEND
  8
0
  0
POLYLINE
  8
20
 66
1
 10
0.0000
 20
0.0000
 30
0.0000
 40
0.0000
 41
0.0000
 70
1
  0
VERTEX
  8
20
 10
36.1000
 20
23.2410
 30
0.0000
  0
VERTEX
  8
20
 10
38.3000
 20
23.2410
 30
0.0000
 42
1.0000
  0
VERTEX
  8
20
 10
38.3000
 20
23.3934
 30
0.0000
  0
VERTEX
  8
20
 10
36.1000
 20
23.3934
 30
0.0000
 42
1.0000
  0
SEQEND
  8
0
  0
POLYLINE
  8
20
 66
1
 10
0.0000
 20
0.0000
 30
0.0000
 40
0.0000
 41
0.0000
 70
1
  0
VERTEX
  8
20
 10
36.1000
 20
23.3934
 30
0.0000
  0
VERTEX
  8
20
 10
38.3000
 20
23.3934
 30
0.0000
 42
1.0000
  0
VERTEX
  8
20
 10
38.3000
 20
23.5458
 30
0.0000
  0
VERTEX
  8
20
 10
36.1000
 20
23.5458
 30
0.0000
 42
1.0000
  0
SEQEND
  8
0
  0
POLYLINE
  8
20
 66
1
 10
0.0000
 20
0.0000
 30
0.0000
 40
0.0000
 41
0.0000
 70
1
  0
VERTEX
  8
20
 10
36.1000
 20
23.5458
 30
0.0000
  0
VERTEX
  8
20
 10
38.3000
 20
23.5458
 30
0.0000
 42
1.0000
  0
VERTEX
  8
20
 10
38.3000
 20
23.6982
 30
0.0000
  0
VERTEX
  8
20
 10
36.1000
 20
23.6982
 30
0.0000
 42
1.0000
  0
SEQEND
  8
0
  0
POLYLINE
  8
20
 66
1
 10
0.0000
 20
0.0000
 30
0.0000
 40
0.0000
 41
0.0000
 70
1
  0
VERTEX
  8
20
 10
36.1000
 20
23.6982
 30
0.0000
  0
VERTEX
  8
20
 10
38.3000
 20
23.6982
 30
0.0000
 42
1.0000
  0
VERTEX
  8
20
 10
38.3000
 20
23.8506
 30
0.0000
  0
VERTEX
  8
20
 10
36.1000
 20
23.8506
 30
0.0000
 42
1.0000
  0
SEQEND
  8
0
  0
POLYLINE
  8
20
 66
1
 10
0.0000
 20
0.0000
 30
0.0000
 40
0.0000
 41
0.0000
 70
1
  0
VERTEX
  8
20
 10
36.1000
 20
23.8506
 30
0.0000
  0
VERTEX
  8
20
 10
38.3000
 20
23.8506
 30
0.0000
 42
1.0000
  0
VERTEX
  8
20
 10
38.3000
 20
24.0030
 30
0.0000
  0
VERTEX
  8
20
 10
36.1000
 20
24.0030
 30
0.0000
 42
1.0000
  0
SEQEND
  8
0
  0
POLYLINE
  8
20
 66
1
 10
0.0000
 20
0.0000
 30
0.0000
 40
0.0000
 41
0.0000
 70
1
  0
VERTEX
  8
20
 10
36.1000
 20
24.0030
 30
0.0000
  0
VERTEX
  8
20
 10
38.3000
 20
24.0030
 30
0.0000
 42
1.0000
  0
VERTEX
  8
20
 10
38.3000
 20
24.1554
 30
0.0000
  0
VERTEX
  8
20
 10
36.1000
 20
24.1554
 30
0.0000
 42
1.0000
  0
SEQEND
  8
0
  0
POLYLINE
  8
20
 66
1
 10
0.0000
 20
0.0000
 30
0.0000
 40
0.0000
 41
0.0000
 70
1
  0
VERTEX
  8
20
 10
36.1000
 20
24.1554
 30
0.0000
  0
VERTEX
  8
20
 10
38.3000
 20
24.1554
 30
0.0000
 42
1.0000
  0
VERTEX
  8
20
 10
38.3000
 20
24.3078
 30
0.0000
  0
VERTEX
  8
20
 10
36.1000
 20
24.3078
 30
0.0000
 42
1.0000
  0
SEQEND
  8
0
  0
POLYLINE
  8
20
 66
1
 10
0.0000
 20
0.0000
 30
0.0000
 40
0.0000
 41
0.0000
 70
1
  0
VERTEX
  8
20
 10
36.1000
 20
24.3078
 30
0.0000
  0
VERTEX
  8
20
 10
38.3000
 20
24.3078
 30
0.0000
 42
1.0000
  0
VERTEX
  8
20
 10
38.3000
 20
24.4602
 30
0.0000
  0
VERTEX
  8
20
 10
36.1000
 20
24.4602
 30
0.0000
 42
1.0000
  0
SEQEND
  8
0
  0
POLYLINE
  8
20
 66
1
 10
0.0000
 20
0.0000
 30
0.0000
 40
0.0000
 41
0.0000
 70
1
  0
VERTEX
  8
20
 10
36.1000
 20
24.4602
 30
0.0000
  0
VERTEX
  8
20
 10
38.3000
 20
24.4602
 30
0.0000
 42
1.0000
  0
VERTEX
  8
20
 10
38.3000
 20
24.6126
 30
0.0000
  0
VERTEX
  8
20
 10
36.1000
 20
24.6126
 30
0.0000
 42
1.0000
  0
SEQEND
  8
0
  0
POLYLINE
  8
20
 66
1
 10
0.0000
 20
0.0000
 30
0.0000
 40
0.0000
 41
0.0000
 70
1
  0
VERTEX
  8
20
 10
36.1000
 20
24.6126
 30
0.0000
  0
VERTEX
  8
20
 10
38.3000
 20
24.6126
 30
0.0000
 42
1.0000
  0
VERTEX
  8
20
 10
38.3000
 20
24.7650
 30
0.0000
  0
VERTEX
  8
20
 10
36.1000
 20
24.7650
 30
0.0000
 42
1.0000
  0
SEQEND
  8
0
  0
POLYLINE
  8
20
 66
1
 10
0.0000
 20
0.0000
 30
0.0000
 40
0.0000
 41
0.0000
 70
1
  0
VERTEX
  8
20
 10
36.1000
 20
24.7650
 30
0.0000
  0
VERTEX
  8
20
 10
38.3000
 20
24.7650
 30
0.0000
 42
1.0000
  0
VERTEX
  8
20
 10
38.3000
 20
24.9174
 30
0.0000
  0
VERTEX
  8
20
 10
36.1000
 20
24.9174
 30
0.0000
 42
1.0000
  0
SEQEND
  8
0
  0
POLYLINE
  8
20
 66
1
 10
0.0000
 20
0.0000
 30
0.0000
 40
0.0000
 41
0.0000
 70
1
  0
VERTEX
  8
20
 10
36.1000
 20
24.9174
 30
0.0000
  0
VERTEX
  8
20
 10
38.3000
 20
24.9174
 30
0.0000
 42
1.0000
  0
VERTEX
  8
20
 10
38.3000
 20
25.0698
 30
0.0000
  0
VERTEX
  8
20
 10
36.1000
 20
25.0698
 30
0.0000
 42
1.0000
  0
SEQEND
  8
0
  0
POLYLINE
  8
20
 66
1
 10
0.0000
 20
0.0000
 30
0.0000
 40
0.0000
 41
0.0000
 70
1
  0
VERTEX
  8
20
 10
36.1000
 20
25.0698
 30
0.0000
  0
VERTEX
  8
20
 10
38.3000
 20
25.0698
 30
0.0000
 42
1.0000
  0
VERTEX
  8
20
 10
38.3000
 20
25.2222
 30
0.0000
  0
VERTEX
  8
20
 10
36.1000
 20
25.2222
 30
0.0000
 42
1.0000
  0
SEQEND
  8
0
  0
POLYLINE
  8
20
 66
1
 10
0.0000
 20
0.0000
 30
0.0000
 40
0.0000
 41
0.0000
 70
1
  0
VERTEX
  8
20
 10
36.1000
 20
25.2222
 30
0.0000
  0
VERTEX
  8
20
 10
38.3000
 20
25.2222
 30
0.0000
 42
1.0000
  0
VERTEX
  8
20
 10
38.3000
 20
25.3746
 30
0.0000
  0
VERTEX
  8
20
 10
36.1000
 20
25.3746
 30
0.0000
 42
1.0000
  0
SEQEND
  8
0
  0
POLYLINE
  8
20
 66
1
 10
0.0000
 20
0.0000
 30
0.0000
 40
0.0000
 41
0.0000
 70
1
  0
VERTEX
  8
20
 10
36.1000
 20
25.3746
 30
0.0000
  0
VERTEX
  8
20
 10
38.3000
 20
25.3746
 30
0.0000
 42
1.0000
  0
VERTEX
  8
20
 10
38.3000
 20
25.5270
 30
0.0000
  0
VERTEX
  8
20
 10
36.1000
 20
25.5270
 30
0.0000
 42
1.0000
  0
SEQEND
  8
0
  0
POLYLINE
  8
20
 66
1
 10
0.0000
 20
0.0000
 30
0.0000
 40
0.0000
 41
0.0000
 70
1
  0
VERTEX
  8
20
 10
36.1000
 20
25.5270
 30
0.0000
  0
VERTEX
  8
20
 10
38.3000
 20
25.5270
 30
0.0000
 42
1.0000
  0
VERTEX
  8
20
 10
38.3000
 20
25.6794
 30
0.0000
  0
VERTEX
  8
20
 10
36.1000
 20
25.6794
 30
0.0000
 42
1.0000
  0
SEQEND
  8
0
  0
POLYLINE
  8
20
 66
1
 10
0.0000
 20
0.0000
 30
0.0000
 40
0.0000
 41
0.0000
 70
1
  0
VERTEX
  8
20
 10
36.1000
 20
25.6794
 30
0.0000
  0
VERTEX
  8
20
 10
38.3000
 20
25.6794
 30
0.0000
 42
1.0000
  0
VERTEX
  8
20
 10
38.3000
 20
25.8318
 30
0.0000
  0
VERTEX
  8
20
 10
36.1000
 20
25.8318
 30
0.0000
 42
1.0000
  0
SEQEND
  8
0
  0
POLYLINE
  8
20
 66
1
 10
0.0000
 20
0.0000
 30
0.0000
 40
0.0000
 41
0.0000
 70
1
  0
VERTEX
  8
20
 10
36.1000
 20
25.8318
 30
0.0000
  0
VERTEX
  8
20
 10
38.3000
 20
25.8318
 30
0.0000
 42
1.0000
  0
VERTEX
  8
20
 10
38.3000
 20
25.9842
 30
0.0000
  0
VERTEX
  8
20
 10
36.1000
 20
25.9842
 30
0.0000
 42
1.0000
  0
SEQEND
  8
0
  0
POLYLINE
  8
20
 66
1
 10
0.0000
 20
0.0000
 30
0.0000
 40
0.0000
 41
0.0000
 70
1
  0
VERTEX
  8
20
 10
36.1000
 20
25.9842
 30
0.0000
  0
VERTEX
  8
20
 10
38.3000
 20
25.9842
 30
0.0000
 42
1.0000
  0
VERTEX
  8
20
 10
38.3000
 20
26.1366
 30
0.0000
  0
VERTEX
  8
20
 10
36.1000
 20
26.1366
 30
0.0000
 42
1.0000
  0
SEQEND
  8
0
  0
POLYLINE
  8
20
 66
1
 10
0.0000
 20
0.0000
 30
0.0000
 40
0.0000
 41
0.0000
 70
1
  0
VERTEX
  8
20
 10
36.1000
 20
26.1366
 30
0.0000
  0
VERTEX
  8
20
 10
38.3000
 20
26.1366
 30
0.0000
 42
1.0000
  0
VERTEX
  8
20
 10
38.3000
 20
26.2890
 30
0.0000
  0
VERTEX
  8
20
 10
36.1000
 20
26.2890
 30
0.0000
 42
1.0000
  0
SEQEND
  8
0
  0
POLYLINE
  8
20
 66
1
 10
0.0000
 20
0.0000
 30
0.0000
 40
0.0000
 41
0.0000
 70
1
  0
VERTEX
  8
20
 10
36.1000
 20
26.2890
 30
0.0000
  0
VERTEX
  8
20
 10
38.3000
 20
26.2890
 30
0.0000
 42
1.0000
  0
VERTEX
  8
20
 10
38.3000
 20
26.4414
 30
0.0000
  0
VERTEX
  8
20
 10
36.1000
 20
26.4414
 30
0.0000
 42
1.0000
  0
SEQEND
  8
0
  0
POLYLINE
  8
20
 66
1
 10
0.0000
 20
0.0000
 30
0.0000
 40
0.0000
 41
0.0000
 70
1
  0
VERTEX
  8
20
 10
36.1000
 20
26.4414
 30
0.0000
  0
VERTEX
  8
20
 10
38.3000
 20
26.4414
 30
0.0000
 42
1.0000
  0
VERTEX
  8
20
 10
38.3000
 20
26.5938
 30
0.0000
  0
VERTEX
  8
20
 10
36.1000
 20
26.5938
 30
0.0000
 42
1.0000
  0
SEQEND
  8
0
  0
POLYLINE
  8
20
 66
1
 10
0.0000
 20
0.0000
 30
0.0000
 40
0.0000
 41
0.0000
 70
1
  0
VERTEX
  8
20
 10
36.1000
 20
26.5938
 30
0.0000
  0
VERTEX
  8
20
 10
38.3000
 20
26.5938
 30
0.0000
 42
1.0000
  0
VERTEX
  8
20
 10
38.3000
 20
26.7462
 30
0.0000
  0
VERTEX
  8
20
 10
36.1000
 20
26.7462
 30
0.0000
 42
1.0000
  0
SEQEND
  8
0
  0
POLYLINE
  8
20
 66
1
 10
0.0000
 20
0.0000
 30
0.0000
 40
0.0000
 41
0.0000
 70
1
  0
VERTEX
  8
20
 10
36.1000
 20
26.7462
 30
0.0000
  0
VERTEX
  8
20
 10
38.3000
 20
26.7462
 30
0.0000
 42
1.0000
  0
VERTEX
  8
20
 10
38.3000
 20
26.8986
 30
0.0000
  0
VERTEX
  8
20
 10
36.1000
 20
26.8986
 30
0.0000
 42
1.0000
  0
SEQEND
  8
0
  0
POLYLINE
  8
20
 66
1
 10
0.0000
 20
0.0000
 30
0.0000
 40
0.0000
 41
0.0000
 70
1
  0
VERTEX
  8
20
 10
36.1000
 20
26.8986
 30
0.0000
  0
VERTEX
  8
20
 10
38.3000
 20
26.8986
 30
0.0000
 42
1.0000
  0
VERTEX
  8
20
 10
38.3000
 20
27.0510
 30
0.0000
  0
VERTEX
  8
20
 10
36.1000
 20
27.0510
 30
0.0000
 42
1.0000
  0
SEQEND
  8
0
  0
POLYLINE
  8
20
 66
1
 10
0.0000
 20
0.0000
 30
0.0000
 40
0.0000
 41
0.0000
 70
1
  0
VERTEX
  8
20
 10
36.1000
 20
27.0510
 30
0.0000
  0
VERTEX
  8
20
 10
38.3000
 20
27.0510
 30
0.0000
 42
1.0000
  0
VERTEX
  8
20
 10
38.3000
 20
27.2034
 30
0.0000
  0
VERTEX
  8
20
 10
36.1000
 20
27.2034
 30
0.0000
 42
1.0000
  0
SEQEND
  8
0
  0
POLYLINE
  8
20
 66
1
 10
0.0000
 20
0.0000
 30
0.0000
 40
0.0000
 41
0.0000
 70
1
  0
VERTEX
  8
20
 10
36.1000
 20
27.2034
 30
0.0000
  0
VERTEX
  8
20
 10
38.3000
 20
27.2034
 30
0.0000
 42
1.0000
  0
VERTEX
  8
20
 10
38.3000
 20
27.3558
 30
0.0000
  0
VERTEX
  8
20
 10
36.1000
 20
27.3558
 30
0.0000
 42
1.0000
  0
SEQEND
  8
0
  0
POLYLINE
  8
20
 66
1
 10
0.0000
 20
0.0000
 30
0.0000
 40
0.0000
 41
0.0000
 70
1
  0
VERTEX
  8
20
 10
36.1000
 20
27.3558
 30
0.0000
  0
VERTEX
  8
20
 10
38.1680
 20
27.3558
 30
0.0000
 42
1.0000
  0
VERTEX
  8
20
 10
38.1680
 20
27.5082
 30
0.0000
  0
VERTEX
  8
20
 10
36.1000
 20
27.5082
 30
0.0000
 42
1.0000
  0
SEQEND
  8
0
  0
POLYLINE
  8
20
 66
1
 10
0.0000
 20
0.0000
 30
0.0000
 40
0.0000
 41
0.0000
 70
1
  0
VERTEX
  8
20
 10
36.1000
 20
27.5082
 30
0.0000
  0
VERTEX
  8
20
 10
38.0156
 20
27.5082
 30
0.0000
 42
1.0000
  0
VERTEX
  8
20
 10
38.0156
 20
27.6606
 30
0.0000
  0
VERTEX
  8
20
 10
36.1000
 20
27.6606
 30
0.0000
 42
1.0000
  0
SEQEND
  8
0
  0
POLYLINE
  8
20
 66
1
 10
0.0000
 20
0.0000
 30
0.0000
 40
0.0000
 41
0.0000
 70
1
  0
VERTEX
  8
20
 10
36.1000
 20
27.6606
 30
0.0000
  0
VERTEX
  8
20
 10
37.8632
 20
27.6606
 30
0.0000
 42
1.0000
  0
VERTEX
  8
20
 10
37.8632
 20
27.8130
 30
0.0000
  0
VERTEX
  8
20
 10
36.1000
 20
27.8130
 30
0.0000
 42
1.0000
  0
SEQEND
  8
0
  0
POLYLINE
  8
20
 66
1
 10
0.0000
 20
0.0000
 30
0.0000
 40
0.0000
 41
0.0000
 70
1
  0
VERTEX
  8
20
 10
36.1000
 20
27.8130
 30
0.0000
  0
VERTEX
  8
20
 10
37.7108
 20
27.8130
 30
0.0000
 42
1.0000
  0
VERTEX
  8
20
 10
37.7108
 20
27.9654
 30
0.0000
  0
VERTEX
  8
20
 10
36.1000
 20
27.9654
 30
0.0000
 42
1.0000
  0
SEQEND
  8
0
  0
POLYLINE
  8
20
 66
1
 10
0.0000
 20
0.0000
 30
0.0000
 40
0.0000
 41
0.0000
 70
1
  0
VERTEX
  8
20
 10
36.1000
 20
27.9654
 30
0.0000
  0
VERTEX
  8
20
 10
37.5584
 20
27.9654
 30
0.0000
 42
1.0000
  0
VERTEX
  8
20
 10
37.5584
 20
28.1178
 30
0.0000
  0
VERTEX
  8
20
 10
36.1000
 20
28.1178
 30
0.0000
 42
1.0000
  0
SEQEND
  8
0
  0
POLYLINE
  8
20
 66
1
 10
0.0000
 20
0.0000
 30
0.0000
 40
0.0000
 41
0.0000
 70
1
  0
VERTEX
  8
20
 10
36.1000
 20
28.1178
 30
0.0000
  0
VERTEX
  8
20
 10
37.4060
 20
28.1178
 30
0.0000
 42
1.0000
  0
VERTEX
  8
20
 10
37.4060
 20
28.2702
 30
0.0000
  0
VERTEX
  8
20
 10
36.1000
 20
28.2702
 30
0.0000
 42
1.0000
  0
SEQEND
  8
0
  0
POLYLINE
  8
20
 66
1
 10
0.0000
 20
0.0000
 30
0.0000
 40
0.0000
 41
0.0000
 70
1
  0
VERTEX
  8
20
 10
36.1000
 20
28.2702
 30
0.0000
  0
VERTEX
  8
20
 10
37.2536
 20
28.2702
 30
0.0000
 42
1.0000
  0
VERTEX
  8
20
 10
37.2536
 20
28.4226
 30
0.0000
  0
VERTEX
  8
20
 10
36.1000
 20
28.4226
 30
0.0000
 42
1.0000
  0
SEQEND
  8
0
  0
POLYLINE
  8
20
 66
1
 10
0.0000
 20
0.0000
 30
0.0000
 40
0.0000
 41
0.0000
 70
1
  0
VERTEX
  8
20
 10
36.1000
 20
28.4226
 30
0.0000
  0
VERTEX
  8
20
 10
37.1012
 20
28.4226
 30
0.0000
 42
1.0000
  0
VERTEX
  8
20
 10
37.1012
 20
28.5750
 30
0.0000
  0
VERTEX
  8
20
 10
36.1000
 20
28.5750
 30
0.0000
 42
1.0000
  0
SEQEND
  8
0
  0
POLYLINE
  8
20
 66
1
 10
0.0000
 20
0.0000
 30
0.0000
 40
0.0000
 41
0.0000
 70
1
  0
VERTEX
  8
20
 10
36.1000
 20
28.5750
 30
0.0000
  0
VERTEX
  8
20
 10
36.9488
 20
28.5750
 30
0.0000
 42
1.0000
  0
VERTEX
  8
20
 10
36.9488
 20
28.7274
 30
0.0000
  0
VERTEX
  8
20
 10
36.1000
 20
28.7274
 30
0.0000
 42
1.0000
  0
SEQEND
  8
0
  0
POLYLINE
  8
20
 66
1
 10
0.0000
 20
0.0000
 30
0.0000
 40
0.0000
 41
0.0000
 70
1
  0
VERTEX
  8
20
 10
36.1000
 20
28.7274
 30
0.0000
  0
VERTEX
  8
20
 10
36.7964
 20
28.7274
 30
0.0000
 42
1.0000
  0
VERTEX
  8
20
 10
36.7964
 20
28.8798
 30
0.0000
  0
VERTEX
  8
20
 10
36.1000
 20
28.8798
 30
0.0000
 42
1.0000
  0
SEQEND
  8
0
  0
POLYLINE
  8
20
 66
1
 10
0.0000
 20
0.0000
 30
0.0000
 40
0.0000
 41
0.0000
 70
1
  0
VERTEX
  8
20
 10
36.1000
 20
28.8798
 30
0.0000
  0
VERTEX
  8
20
 10
36.6440
 20
28.8798
 30
0.0000
 42
1.0000
  0
VERTEX
  8
20
 10
36.6440
 20
29.0322
 30
0.0000
  0
VERTEX
  8
20
 10
36.1000
 20
29.0322
 30
0.0000
 42
1.0000
  0
SEQEND
  8
0
  0
POLYLINE
  8
20
 66
1
 10
0.0000
 20
0.0000
 30
0.0000
 40
0.0000
 41
0.0000
 70
1
  0
VERTEX
  8
20
 10
36.1000
 20
29.0322
 30
0.0000
  0
VERTEX
  8
20
 10
36.4916
 20
29.0322
 30
0.0000
 42
1.0000
  0
VERTEX
  8
20
 10
36.4916
 20
29.1846
 30
0.0000
  0
VERTEX
  8
20
 10
36.1000
 20
29.1846
 30
0.0000
 42
1.0000
  0
SEQEND
  8
0
  0
POLYLINE
  8
20
 66
1
 10
0.0000
 20
0.0000
 30
0.0000
 40
0.0000
 41
0.0000
 70
1
  0
VERTEX
  8
20
 10
36.1000
 20
29.1846
 30
0.0000
  0
VERTEX
  8
20
 10
36.3392
 20
29.1846
 30
0.0000
 42
1.0000
  0
VERTEX
  8
20
 10
36.3392
 20
29.3370
 30
0.0000
  0
VERTEX
  8
20
 10
36.1000
 20
29.3370
 30
0.0000
 42
1.0000
  0
SEQEND
  8
0
  0
POLYLINE
  8
20
 66
1
 10
0.0000
 20
0.0000
 30
0.0000
 40
0.0000
 41
0.0000
 70
1
  0
VERTEX
  8
20
 10
36.1000
 20
29.3370
 30
0.0000
  0
VERTEX
  8
20
 10
36.1868
 20
29.3370
 30
0.0000
 42
1.0000
  0
VERTEX
  8
20
 10
36.1868
 20
29.4894
 30
0.0000
  0
VERTEX
  8
20
 10
36.1000
 20
29.4894
 30
0.0000
 42
1.0000
  0
SEQEND
  8
0
  0
LINE
  8
20
 10
40.0000
 20
28.2840
 30
0.0000
 11
40.0000
 21
11.7160
 31
0.0000
  0
LINE
  8
20
 10
40.0000
 20
11.7160
 30
0.0000
 11
28.2840
 21
0.0000
 31
0.0000
  0
LINE
  8
20
 10
28.2840
 20
0.0000
 30
0.0000
 11
11.7160
 21
0.0000
 31
0.0000
  0
LINE
  8
20
 10
11.7160
 20
0.0000
 30
0.0000
 11
0.0000
 21
11.7160
 31
0.0000
  0
LINE
  8
20
 10
0.0000
 20
11.7160
 30
0.0000
 11
0.0000
 21
28.2840
 31
0.0000
  0
LINE
  8
20
 10
0.0000
 20
28.2840
 30
0.0000
 11
11.7160
 21
40.0000
 31
0.0000
  0
LINE
  8
20
 10
11.7160
 20
40.0000
 30
0.0000
 11
28.2840
 21
40.0000
 31
0.0000
  0
LINE
  8
20
 10
28.2840
 20
40.0000
 30
0.0000
 11
40.0000
 21
28.2840
 31
0.0000
  0
INSERT
  8
17
  2
LONGP100
 10
25.1800
 20
36.2900
 30
0.0000
 41
1.5240
 42
1.5240
 43
1.0000
 50
270.0000
  0
INSERT
  8
17
  2
LONGP100
 10
25.1800
 20
36.2900
 30
0.0000
 41
1.5240
 42
1.5240
 43
1.0000
 50
270.0000
  0
INSERT
  8
17
  2
LONGP100
 10
22.6400
 20
36.2900
 30
0.0000
 41
1.5240
 42
1.5240
 43
1.0000
 50
270.0000
  0
INSERT
  8
17
  2
LONGP100
 10
22.6400
 20
36.2900
 30
0.0000
 41
1.5240
 42
1.5240
 43
1.0000
 50
270.0000
  0
INSERT
  8
17
  2
LONGP100
 10
20.1000
 20
36.2900
 30
0.0000
 41
1.5240
 42
1.5240
 43
1.0000
 50
270.0000
  0
INSERT
  8
17
  2
LONGP100
 10
20.1000
 20
36.2900
 30
0.0000
 41
1.5240
 42
1.5240
 43
1.0000
 50
270.0000
  0
INSERT
  8
17
  2
LONGP100
 10
17.5600
 20
36.2900
 30
0.0000
 41
1.5240
 42
1.5240
 43
1.0000
 50
270.0000
  0
INSERT
  8
17
  2
LONGP100
 10
17.5600
 20
36.2900
 30
0.0000
 41
1.5240
 42
1.5240
 43
1.0000
 50
270.0000
  0
INSERT
  8
17
  2
LONGP100
 10
15.0200
 20
36.2900
 30
0.0000
 41
1.5240
 42
1.5240
 43
1.0000
 50
270.0000
  0
INSERT
  8
17
  2
LONGP100
 10
15.0200
 20
36.2900
 30
0.0000
 41
1.5240
 42
1.5240
 43
1.0000
 50
270.0000
  0
INSERT
  8
17
  2
LONGP100
 10
25.0800
 20
3.5900
 30
0.0000
 41
1.5240
 42
1.5240
 43
1.0000
 50
270.0000
  0
INSERT
  8
17
  2
LONGP100
 10
25.0800
 20
3.5900
 30
0.0000
 41
1.5240
 42
1.5240
 43
1.0000
 50
270.0000
  0
INSERT
  8
17
  2
LONGP100
 10
22.5400
 20
3.5900
 30
0.0000
 41
1.5240
 42
1.5240
 43
1.0000
 50
270.0000
  0
INSERT
  8
17
  2
LONGP100
 10
22.5400
 20
3.5900
 30
0.0000
 41
1.5240
 42
1.5240
 43
1.0000
 50
270.0000
  0
INSERT
  8
17
  2
LONGP100
 10
20.0000
 20
3.5900
 30
0.0000
 41
1.5240
 42
1.5240
 43
1.0000
 50
270.0000
  0
INSERT
  8
17
  2
LONGP100
 10
20.0000
 20
3.5900
 30
0.0000
 41
1.5240
 42
1.5240
 43
1.0000
 50
270.0000
  0
INSERT
  8
17
  2
LONGP100
 10
17.4600
 20
3.5900
 30
0.0000
 41
1.5240
 42
1.5240
 43
1.0000
 50
270.0000
  0
INSERT
  8
17
  2
LONGP100
 10
17.4600
 20
3.5900
 30
0.0000
 41
1.5240
 42
1.5240
 43
1.0000
 50
270.0000
  0
INSERT
  8
17
  2
LONGP100
 10
14.9200
 20
3.5900
 30
0.0000
 41
1.5240
 42
1.5240
 43
1.0000
 50
270.0000
  0
INSERT
  8
17
  2
LONGP100
 10
14.9200
 20
3.5900
 30
0.0000
 41
1.5240
 42
1.5240
 43
1.0000
 50
270.0000
  0
INSERT
  8
18
  2
ROUNDV
 10
28.6000
 20
12.6000
 30
0.0000
 41
1.6000
 42
1.6000
 43
1.0000
 50
0.0000
  0
INSERT
  8
18
  2
ROUNDV
 10
28.6000
 20
12.6000
 30
0.0000
 41
1.6000
 42
1.6000
 43
1.0000
 50
0.0000
  0
INSERT
  8
18
  2
ROUNDV
 10
24.4000
 20
12.5000
 30
0.0000
 41
1.6000
 42
1.6000
 43
1.0000
 50
0.0000
  0
INSERT
  8
18
  2
ROUNDV
 10
24.4000
 20
12.5000
 30
0.0000
 41
1.6000
 42
1.6000
 43
1.0000
 50
0.0000
  0
INSERT
  8
18
  2
ROUNDV
 10
20.0000
 20
12.5000
 30
0.0000
 41
1.6000
 42
1.6000
 43
1.0000
 50
0.0000
  0
INSERT
  8
18
  2
ROUNDV
 10
20.0000
 20
12.5000
 30
0.0000
 41
1.6000
 42
1.6000
 43
1.0000
 50
0.0000
  0
INSERT
  8
18
  2
ROUNDV
 10
15.7000
 20
12.4000
 30
0.0000
 41
1.6000
 42
1.6000
 43
1.0000
 50
0.0000
  0
INSERT
  8
18
  2
ROUNDV
 10
15.7000
 20
12.4000
 30
0.0000
 41
1.6000
 42
1.6000
 43
1.0000
 50
0.0000
  0
INSERT
  8
18
  2
ROUNDV
 10
11.5000
 20
12.4000
 30
0.0000
 41
1.6000
 42
1.6000
 43
1.0000
 50
0.0000
  0
INSERT
  8
18
  2
ROUNDV
 10
11.5000
 20
12.4000
 30
0.0000
 41
1.6000
 42
1.6000
 43
1.0000
 50
0.0000
  0
INSERT
  8
18
  2
ROUNDV
 10
11.0000
 20
16.0000
 30
0.0000
 41
1.6000
 42
1.6000
 43
1.0000
 50
0.0000
  0
INSERT
  8
18
  2
ROUNDV
 10
11.0000
 20
16.0000
 30
0.0000
 41
1.6000
 42
1.6000
 43
1.0000
 50
0.0000
  0
INSERT
  8
18
  2
ROUNDV
 10
9.9000
 20
20.3000
 30
0.0000
 41
1.6000
 42
1.6000
 43
1.0000
 50
0.0000
  0
INSERT
  8
18
  2
ROUNDV
 10
9.9000
 20
20.3000
 30
0.0000
 41
1.6000
 42
1.6000
 43
1.0000
 50
0.0000
  0
ENDSEC
  0
EOF
